<svg width="430" height="354" viewBox="0 0 430 354" fill="none" xmlns="http://www.w3.org/2000/svg">
<g clip-path="url(#clip0_6_6234)">
<path d="M429.5 265.81L411.913 327.874C411.913 327.874 409.231 341.061 399.821 343.654L280.666 344.182C280.666 344.182 266.949 341.742 266.685 327.94L284.712 266.58C284.712 266.58 287.394 252.119 301.705 252.119H422.421C424.672 253.607 426.504 255.646 427.743 258.043C428.982 260.44 429.587 263.114 429.5 265.81Z" fill="#662D91"/>
<path d="M256.924 332.929H218.913C218.432 331.271 217.768 329.672 216.934 328.16C216.142 327.059 215.749 325.72 215.821 324.365C215.893 323.011 216.426 321.721 217.33 320.71C219.947 317.743 220.958 317.391 227.97 316.93C234.983 316.468 245.975 317.347 247.646 318.336C249.007 318.919 250.236 319.77 251.26 320.838C252.284 321.907 253.081 323.172 253.604 324.556C255.033 328.644 256.924 332.929 256.924 332.929Z" fill="white"/>
<path d="M3.15999 67.1133H220.782V232.251H3.15999V67.1133Z" fill="white"/>
<path d="M25.3642 86.2996H116.489V199.703H25.3642V86.2996Z" fill="#662D91"/>
<path d="M88.7668 92.3653C88.7668 92.3653 83.2923 89.6402 81.2258 90.1676C77.3755 91.0415 73.6728 92.4703 70.2337 94.4092C67.9733 95.7251 65.4695 96.569 62.8736 96.8901C60.2777 97.2112 57.6438 97.0027 55.1308 96.2772C50.0964 94.6949 45.0619 101.618 45.0619 102.87C45.0619 104.123 43.8086 116.233 47.0402 122.21C45.3853 122.87 44.0368 124.124 43.259 125.727C41.6102 129.573 42.2041 135.705 50.2064 136.716C50.2064 136.716 51.4595 160.583 49.6348 161.286C47.8101 161.99 21.8464 167.154 21.8464 175.022V196.252H111.762L112.136 187.219C112.136 187.219 112.136 182.45 109.937 180.846L108.333 177.352C108.333 177.352 94.0866 160.825 75.7958 161.726L76.4334 154.034C76.4334 154.034 89.2504 154.495 90.3496 144.803C91.4488 135.111 87.9749 145.375 87.2275 112.277C87.2275 112.277 96.3952 112.123 94.1088 99.0904C93.6471 96.5191 88.7668 92.3653 88.7668 92.3653Z" fill="white"/>
<path d="M0.500061 48.4545H218.122V70.6516H0.500061V48.4545Z" fill="black"/>
<path d="M159.16 268.536C165.755 247.679 179.759 231.174 185.101 222.801C190.443 214.427 220.672 181.725 253.45 183.022C253.45 183.022 255.275 200.296 267.345 200.845C279.414 201.395 279.963 187.439 279.963 187.439C279.963 187.439 300.277 185.835 326.13 208.515C351.984 231.196 355.523 245.042 355.523 245.042L293.484 245.525C293.484 245.525 282.096 243.811 277.083 260.25C272.071 276.689 258.924 323.743 258.924 323.743C258.924 323.743 259.43 331.808 261.343 332.929H256.814C256.814 332.929 253.187 319.984 248.482 318.886C242.579 317.52 236.536 316.856 230.477 316.908C225.135 317.149 217.286 317.611 215.901 323.347C214.516 329.083 219.243 328.731 218.781 332.929H202.667C202.667 332.929 198.27 335.127 199.413 337.522C199.413 337.522 180.639 336.775 169.844 323.105C159.05 309.435 152.477 289.392 159.16 268.536ZM200.93 276.294C205.481 288.667 221.397 294.908 221.397 294.908L210.405 243.943C210.405 243.943 195.676 261.942 200.886 276.294H200.93Z" fill="black"/>
<path d="M84.3698 266.052C84.3698 266.052 80.7641 262.118 84.0398 252.272C87.3154 242.426 83.7099 231.965 71.2668 230.647C58.8237 229.328 52.5802 241.13 54.207 248.998C55.8339 256.866 56.4054 259.151 54.207 266.58C52.0086 274.008 53.24 295.436 74.8725 294.777C94.3066 294.293 91.9104 274.228 84.3698 266.052Z" fill="white"/>
<path d="M55.966 217.087C55.966 222.076 58.6039 226.097 61.8576 226.097C65.1113 226.097 67.7498 222.076 67.7498 217.087C67.7498 212.098 65.1113 208.076 61.8576 208.076C58.6039 208.076 55.966 212.12 55.966 217.087Z" fill="white"/>
<path d="M80.8084 314.512C97.8242 314.029 100.243 310.864 100.243 310.864V312.49C103.562 312.205 117.83 311.897 118.072 328.27C118.467 346.819 100.243 347.676 100.243 347.676V350.006C100.243 350.006 97.1426 352.753 80.1708 352.753C63.1989 352.753 61.3961 349.698 61.3961 349.698V310.864C61.3961 310.864 63.7706 315.018 80.8084 314.512ZM112.136 326.556C111.279 317.633 100.484 318.556 100.484 318.556L100.243 316.996V341.544C105.035 340.248 112.971 335.479 112.136 326.556Z" fill="black"/>
<path d="M61.3962 310.556C61.3962 312.754 70.1901 314.512 80.8084 314.512C91.4268 314.512 100.243 312.754 100.243 310.556C100.243 308.359 91.4488 306.6 80.8084 306.6C70.1681 306.6 61.3962 308.381 61.3962 310.556Z" fill="white"/>
<path d="M340.442 295.392C339.013 300.249 341.168 305.128 345.235 306.381C349.302 307.633 353.765 304.644 355.194 299.787C356.623 294.93 354.49 290.051 350.401 288.799C346.312 287.546 341.871 290.513 340.442 295.392Z" fill="white"/>
<path opacity="0.2" d="M305.817 138.32L273.214 130.188C273.214 130.188 274.599 120.101 273.588 118.255L261.607 132.913C261.607 132.913 256.77 129.991 251.846 138.474C251.846 138.474 249.01 144.935 252.901 149.638C252.901 149.638 248.394 154.869 252.021 163.594C255.649 172.319 256.067 172.604 256.067 172.604C256.067 172.604 240.392 166.011 238.919 159.946C241.273 151.278 243.072 142.469 244.305 133.573C244.729 128.882 244.861 124.17 244.701 119.463C246.004 115.159 248.542 111.332 252 108.456C255.459 105.581 259.686 103.784 264.157 103.288C276.433 102.085 288.812 104.092 300.079 109.112C300.079 109.112 313.16 115.266 305.817 138.32Z" fill="black"/>
<path d="M309.994 139.946L273.258 130.188C273.258 130.188 275.039 121.397 274.226 120.606L265.564 136.298C265.564 136.298 262.618 132.628 260.2 132.474C258.039 132.458 255.949 133.238 254.327 134.665C252.705 136.092 251.665 138.066 251.406 140.21C249.977 146.649 252.681 150.737 258.859 151.638C258.859 151.638 255.1 155.836 257.452 163.638C258.579 167.666 260.095 171.574 261.98 175.308L257.232 173.506L253.517 183.022C253.517 183.022 255.495 197.395 264.926 200.494C274.357 203.593 278.711 193.747 280.03 187.439L281.854 177.901C281.854 177.901 294.781 180.692 300.871 169.11C306.96 157.528 309.994 139.946 309.994 139.946Z" fill="white"/>
<path opacity="0.2" d="M297.111 174.143L297.639 173.33L299.705 178.978L294.165 176.319L297.111 174.143Z" fill="black"/>
<path d="M227.421 332.929H224.255V326.182C224.255 326.182 227.883 329.259 227.421 332.929Z" fill="black"/>
<path d="M282.25 23.3125L287.504 0.5L229.751 18.0379L273.236 55.3335L280.205 28.6969L232.851 18.4775L282.25 23.3125Z" fill="#662D91"/>
<path d="M277.919 37.0923L290.823 38.7406L282.25 23.3125L231.246 18.0599L280.205 28.6969L277.919 37.0923Z" fill="#662D91"/>
<path d="M38.8626 54.9379C38.8626 55.4769 39.0225 56.0037 39.322 56.4519C39.6216 56.9001 40.0476 57.2494 40.5457 57.4557C41.0439 57.6619 41.5917 57.7159 42.1205 57.6107C42.6493 57.5056 43.1353 57.246 43.5165 56.8649C43.8978 56.4838 44.1574 55.9982 44.2626 55.4696C44.3677 54.941 44.3138 54.3929 44.1074 53.8949C43.9011 53.397 43.5515 52.9714 43.1032 52.672C42.6549 52.3726 42.1278 52.2127 41.5886 52.2127C40.8656 52.2127 40.1725 52.4998 39.6612 53.0108C39.15 53.5219 38.8626 54.2151 38.8626 54.9379Z" fill="white"/>
<path d="M28.2003 54.9379C28.2003 55.6606 28.4872 56.3538 28.9984 56.8649C29.5096 57.376 30.2033 57.663 30.9263 57.663C31.6493 57.663 32.3425 57.376 32.8537 56.8649C33.3649 56.3538 33.6523 55.6606 33.6523 54.9379C33.6523 54.2151 33.3649 53.5219 32.8537 53.0108C32.3425 52.4998 31.6493 52.2127 30.9263 52.2127C30.2033 52.2127 29.5096 52.4998 28.9984 53.0108C28.4872 53.5219 28.2003 54.2151 28.2003 54.9379Z" fill="white"/>
<path d="M18.0653 54.9379C18.0653 55.6606 18.3527 56.3538 18.8639 56.8649C19.3752 57.376 20.0683 57.663 20.7913 57.663C21.5143 57.663 22.208 57.376 22.7192 56.8649C23.2305 56.3538 23.5173 55.6606 23.5173 54.9379C23.5173 54.2151 23.2305 53.5219 22.7192 53.0108C22.208 52.4998 21.5143 52.2127 20.7913 52.2127C20.0683 52.2127 19.3752 52.4998 18.8639 53.0108C18.3527 53.5219 18.0653 54.2151 18.0653 54.9379Z" fill="white"/>
<path d="M375.551 180.868C376.386 180.341 376.386 179.857 376.1 179.571L369.219 172.693C369.153 172.604 369.069 172.531 368.972 172.479C368.875 172.426 368.768 172.395 368.658 172.387C368.548 172.379 368.438 172.395 368.334 172.433C368.231 172.472 368.137 172.532 368.06 172.61C367.982 172.688 367.921 172.782 367.882 172.885C367.844 172.988 367.828 173.099 367.836 173.209C367.844 173.318 367.875 173.425 367.928 173.522C367.981 173.619 368.053 173.703 368.142 173.769L375.023 180.648C375.166 180.783 375.354 180.861 375.551 180.868Z" fill="black"/>
<path d="M368.692 180.868C369.219 180.648 376.101 173.769 376.101 173.769C376.212 173.621 376.266 173.438 376.253 173.253C376.24 173.069 376.16 172.895 376.029 172.764C375.898 172.633 375.724 172.554 375.539 172.541C375.355 172.527 375.172 172.581 375.024 172.692L368.142 179.571C368.006 179.718 367.931 179.91 367.931 180.11C367.931 180.31 368.006 180.502 368.142 180.648C368.294 180.784 368.488 180.862 368.692 180.868Z" fill="black"/>
<path d="M381.772 168.407C382.429 168.407 383.071 168.212 383.617 167.848C384.163 167.483 384.588 166.965 384.84 166.358C385.091 165.752 385.157 165.085 385.029 164.441C384.9 163.797 384.584 163.206 384.12 162.742C383.656 162.277 383.064 161.961 382.42 161.833C381.776 161.705 381.109 161.771 380.502 162.022C379.896 162.273 379.377 162.699 379.012 163.244C378.648 163.79 378.453 164.432 378.453 165.088C378.458 165.967 378.81 166.807 379.432 167.428C380.053 168.049 380.894 168.401 381.772 168.407ZM381.772 163.264C382.252 163.27 382.711 163.465 383.049 163.806C383.386 164.148 383.575 164.608 383.575 165.088C383.575 165.566 383.385 166.025 383.047 166.363C382.709 166.7 382.25 166.89 381.772 166.89C381.294 166.89 380.836 166.7 380.497 166.363C380.159 166.025 379.97 165.566 379.97 165.088C379.97 164.608 380.159 164.148 380.496 163.806C380.834 163.465 381.292 163.27 381.772 163.264Z" fill="black"/>
<path d="M24.4848 272.14C25.024 272.14 25.5512 271.98 25.9995 271.681C26.4478 271.381 26.7974 270.956 27.0037 270.458C27.21 269.96 27.264 269.412 27.1588 268.883C27.0536 268.354 26.794 267.869 26.4128 267.488C26.0315 267.107 25.5455 266.847 25.0167 266.742C24.4879 266.637 23.9401 266.691 23.442 266.897C22.9439 267.103 22.5178 267.453 22.2183 267.901C21.9187 268.349 21.7588 268.876 21.7588 269.415C21.7646 270.136 22.0539 270.826 22.5639 271.335C23.0739 271.845 23.7636 272.134 24.4848 272.14ZM24.4848 268.206C24.724 268.206 24.958 268.277 25.1568 268.41C25.3557 268.543 25.5108 268.731 25.6023 268.952C25.6938 269.173 25.7177 269.416 25.671 269.651C25.6243 269.885 25.5089 270.1 25.3398 270.269C25.1707 270.438 24.9555 270.554 24.721 270.6C24.4864 270.647 24.2431 270.623 24.0222 270.532C23.8012 270.44 23.6124 270.285 23.4796 270.086C23.3467 269.888 23.2761 269.654 23.2761 269.415C23.2761 269.094 23.4036 268.787 23.6304 268.56C23.8571 268.333 24.1642 268.206 24.4848 268.206Z" fill="black"/>
<path d="M291.022 39.3999C291.769 39.1142 291.901 38.6527 291.703 38.2791L283.371 22.8949C282.777 22.4993 229.817 17.2247 229.817 17.2247C229.633 17.2356 229.459 17.3124 229.326 17.4412C229.194 17.5699 229.112 17.742 229.096 17.926C229.08 18.11 229.131 18.2936 229.239 18.4433C229.347 18.5929 229.506 18.6987 229.685 18.7412L282.228 23.9498L290.362 38.9384C290.414 39.0718 290.504 39.1868 290.622 39.2689C290.739 39.3511 290.878 39.3966 291.022 39.3999Z" fill="black"/>
<path d="M290.824 39.5098C291.637 38.7625 291.571 38.4109 291.329 38.1911L280.601 28.0815C280.448 27.9752 280.262 27.9277 280.077 27.9479C279.892 27.9681 279.721 28.0546 279.595 28.1913C279.469 28.328 279.397 28.5058 279.392 28.6917C279.387 28.8776 279.449 29.059 279.567 29.2024L288.603 37.7076L278.007 36.345C277.817 36.3411 277.633 36.4072 277.489 36.5308C277.346 36.6544 277.252 36.8266 277.228 37.0146C277.203 37.2025 277.249 37.3928 277.356 37.5491C277.463 37.7054 277.625 37.8166 277.809 37.8615L290.714 39.5098H290.824Z" fill="black"/>
<path d="M282.25 24.0817C282.423 24.0813 282.591 24.0225 282.727 23.9149C282.862 23.8072 282.958 23.6569 282.997 23.4883L288.23 0.675802C287.284 -0.225269 229.092 17.3347 229.092 17.3347C228.924 17.3843 228.778 17.4897 228.678 17.6336C228.578 17.7775 228.53 17.9511 228.542 18.1258C228.557 18.3015 228.634 18.4663 228.759 18.5909C228.883 18.7156 229.048 18.7922 229.224 18.8071L282.184 24.0597L282.25 24.0817ZM286.471 1.62081L281.656 22.4993L233.181 17.6862L286.471 1.62081Z" fill="black"/>
<path d="M273.236 56.1027C273.962 55.5313 280.821 28.8288 280.821 28.8288C280.227 27.9057 229.466 17.3127 229.466 17.3127C229.3 17.2847 229.13 17.31 228.98 17.3851C228.83 17.4602 228.707 17.581 228.63 17.7302C228.555 17.8786 228.532 18.0477 228.564 18.2109C228.596 18.3741 228.681 18.5221 228.806 18.6313L272.775 55.9927C272.913 56.0771 273.075 56.1156 273.236 56.1027ZM279.216 29.2243L272.863 53.9708L232.126 19.4005L279.216 29.2243Z" fill="black"/>
<path d="M404.812 234.669C406.624 233.003 408.26 231.154 409.692 229.152C409.772 229.075 409.834 228.982 409.874 228.879C409.915 228.776 409.932 228.665 409.926 228.554C409.92 228.444 409.889 228.336 409.837 228.238C409.785 228.14 409.713 228.055 409.625 227.987C409.537 227.92 409.435 227.873 409.327 227.848C409.219 227.824 409.107 227.823 408.998 227.846C408.89 227.869 408.788 227.915 408.699 227.981C408.61 228.047 408.536 228.132 408.483 228.229C407.161 230.024 405.745 231.748 404.24 233.394C404.099 233.538 404.02 233.731 404.02 233.932C404.02 234.134 404.099 234.327 404.24 234.471C404.397 234.61 404.602 234.681 404.812 234.669ZM412.88 223.856C414.437 221.916 415.772 219.807 416.859 217.57C416.952 217.389 416.969 217.179 416.907 216.986C416.845 216.792 416.71 216.631 416.529 216.537C416.441 216.492 416.346 216.464 416.247 216.456C416.148 216.448 416.049 216.46 415.955 216.491C415.861 216.522 415.774 216.571 415.699 216.635C415.624 216.7 415.562 216.778 415.518 216.867C414.507 218.845 413.32 220.801 412.242 222.713C412.19 222.796 412.155 222.89 412.139 222.987C412.123 223.084 412.126 223.184 412.148 223.28C412.17 223.376 412.212 223.466 412.27 223.546C412.328 223.626 412.4 223.694 412.485 223.746C412.601 223.825 412.74 223.864 412.88 223.856ZM418.97 211.834C420.266 209.684 421.272 207.37 421.959 204.955C422.015 204.763 421.993 204.557 421.898 204.38C421.804 204.204 421.644 204.071 421.454 204.01C421.359 203.977 421.258 203.963 421.157 203.971C421.056 203.978 420.959 204.007 420.87 204.054C420.781 204.102 420.703 204.167 420.641 204.247C420.578 204.326 420.533 204.418 420.509 204.516C419.871 206.713 419.102 208.735 418.31 210.801C418.27 210.892 418.249 210.99 418.247 211.089C418.246 211.188 418.264 211.286 418.3 211.378C418.337 211.47 418.392 211.554 418.462 211.625C418.532 211.696 418.614 211.752 418.706 211.79C418.79 211.821 418.88 211.836 418.97 211.834ZM422.905 198.955C423.081 198.954 423.251 198.892 423.388 198.78C423.524 198.668 423.617 198.513 423.652 198.34C424.114 196.142 424.466 193.945 424.729 191.747C424.742 191.646 424.733 191.543 424.706 191.445C424.678 191.347 424.631 191.256 424.568 191.176C424.504 191.096 424.426 191.03 424.336 190.981C424.247 190.931 424.149 190.901 424.048 190.89C423.849 190.882 423.655 190.947 423.501 191.072C423.347 191.198 423.245 191.375 423.213 191.571C422.971 193.769 422.619 195.966 422.157 198.164C422.135 198.262 422.132 198.364 422.15 198.463C422.168 198.563 422.207 198.657 422.262 198.741C422.317 198.826 422.389 198.898 422.473 198.953C422.558 199.009 422.652 199.047 422.751 199.065L422.905 198.955ZM424.422 185.571C424.622 185.571 424.814 185.493 424.958 185.354C425.102 185.214 425.185 185.024 425.191 184.824V183.264C425.191 181.527 425.191 179.769 425.015 178.011C425.015 177.615 424.685 177.352 424.202 177.308C424.001 177.325 423.816 177.419 423.684 177.571C423.553 177.723 423.486 177.92 423.498 178.121C423.63 179.835 423.674 181.571 423.674 183.264V184.802C423.671 184.9 423.688 184.998 423.722 185.09C423.757 185.181 423.81 185.265 423.878 185.337C423.945 185.408 424.026 185.466 424.115 185.506C424.205 185.546 424.302 185.568 424.4 185.571H424.422ZM423.498 172.121C423.605 172.119 423.711 172.094 423.808 172.049C423.905 172.003 423.991 171.938 424.062 171.857C424.132 171.777 424.184 171.682 424.216 171.58C424.248 171.478 424.258 171.37 424.246 171.264C423.894 169.066 423.433 166.868 422.883 164.671C422.836 164.478 422.715 164.313 422.546 164.21C422.377 164.107 422.174 164.075 421.981 164.121C421.885 164.142 421.793 164.182 421.712 164.239C421.632 164.296 421.564 164.369 421.512 164.453C421.461 164.538 421.427 164.632 421.413 164.73C421.4 164.827 421.406 164.927 421.432 165.022C421.959 167.22 422.399 169.418 422.751 171.616C422.8 171.772 422.901 171.907 423.037 171.999C423.172 172.09 423.335 172.134 423.498 172.121ZM420.288 158.935C420.926 158.759 421.146 158.341 421.014 157.946C420.311 155.748 419.519 153.55 418.662 151.572C418.567 151.417 418.419 151.3 418.246 151.243C418.072 151.185 417.885 151.192 417.715 151.26C417.546 151.329 417.407 151.456 417.323 151.617C417.239 151.779 417.214 151.966 417.255 152.144C418.112 154.209 418.882 156.319 419.585 158.407C419.606 158.58 419.689 158.74 419.818 158.857C419.947 158.974 420.114 159.04 420.288 159.044V158.935ZM415.189 146.452C415.892 146.21 416.045 145.748 415.848 145.375C415.056 143.748 414.199 142.1 413.298 140.474C413.1 140.1 412.88 139.726 412.66 139.375C412.609 139.29 412.543 139.215 412.464 139.156C412.384 139.097 412.294 139.053 412.198 139.029C412.102 139.004 412.002 138.999 411.904 139.013C411.806 139.027 411.712 139.061 411.627 139.111C411.542 139.162 411.467 139.228 411.408 139.308C411.348 139.387 411.306 139.477 411.281 139.573C411.257 139.669 411.251 139.769 411.265 139.867C411.279 139.965 411.313 140.059 411.363 140.144L411.978 141.199C412.858 142.825 413.715 144.452 414.507 146.034C414.552 146.181 414.642 146.311 414.764 146.406C414.886 146.5 415.034 146.555 415.189 146.561V146.452ZM352.159 139.463C353.017 138.584 352.819 138.144 352.445 138.012C350.892 137.379 349.501 136.402 348.378 135.155C348.06 134.835 347.759 134.497 347.477 134.144C347.331 134.008 347.138 133.933 346.938 133.933C346.738 133.933 346.546 134.008 346.4 134.144C346.265 134.287 346.191 134.476 346.191 134.672C346.191 134.868 346.265 135.056 346.4 135.199C346.703 135.582 347.026 135.948 347.367 136.298C348.65 137.695 350.227 138.791 351.984 139.507L352.159 139.463ZM358.755 139.463C361.064 138.667 363.173 137.377 364.932 135.683C365.051 135.539 365.113 135.358 365.108 135.172C365.103 134.986 365.031 134.808 364.905 134.672C364.779 134.535 364.607 134.448 364.422 134.428C364.238 134.408 364.052 134.455 363.899 134.562C362.35 136.057 360.52 137.23 358.513 138.012C358.326 138.082 358.172 138.222 358.086 138.402C358 138.583 357.988 138.79 358.052 138.979C358.087 139.14 358.175 139.284 358.303 139.388C358.431 139.492 358.59 139.549 358.755 139.551V139.463ZM408.088 135.067C408.879 134.606 408.923 134.144 408.659 133.815C407.166 132.073 405.534 130.456 403.778 128.98C403.636 128.845 403.447 128.77 403.251 128.77C403.055 128.77 402.866 128.845 402.723 128.98C402.651 129.049 402.593 129.133 402.554 129.225C402.514 129.318 402.494 129.417 402.494 129.518C402.494 129.618 402.514 129.718 402.554 129.811C402.593 129.903 402.651 129.987 402.723 130.056C404.407 131.48 405.974 133.038 407.406 134.716C407.469 134.843 407.566 134.952 407.686 135.029C407.806 135.107 407.945 135.15 408.088 135.155V135.067ZM368.78 130.672C370.404 128.764 371.758 126.642 372.803 124.364C372.845 124.275 372.868 124.178 372.873 124.079C372.877 123.981 372.862 123.882 372.829 123.789C372.795 123.696 372.743 123.611 372.677 123.538C372.61 123.465 372.53 123.406 372.44 123.364C372.351 123.322 372.254 123.299 372.155 123.294C372.056 123.29 371.958 123.305 371.865 123.339C371.772 123.372 371.686 123.424 371.614 123.49C371.541 123.557 371.481 123.637 371.44 123.727C370.483 125.724 369.381 127.649 368.142 129.485C368.032 129.648 367.991 129.849 368.028 130.042C368.065 130.236 368.178 130.407 368.34 130.518C368.386 130.6 368.45 130.672 368.525 130.729C368.601 130.786 368.687 130.826 368.78 130.848V130.672ZM344.047 129.331C344.152 129.328 344.256 129.304 344.351 129.26C344.446 129.216 344.532 129.153 344.602 129.075C344.672 128.997 344.725 128.905 344.758 128.806C344.791 128.706 344.804 128.601 344.795 128.496C344.755 127.49 344.942 126.488 345.341 125.563C345.741 124.639 346.343 123.816 347.103 123.155C347.244 123.012 347.323 122.818 347.323 122.617C347.323 122.416 347.244 122.222 347.103 122.079C346.957 121.943 346.764 121.867 346.565 121.867C346.365 121.867 346.172 121.943 346.026 122.079C345.162 122.806 344.464 123.71 343.979 124.73C343.493 125.75 343.232 126.861 343.212 127.991C343.322 129.199 343.652 129.507 344.047 129.507V129.331ZM397.931 126.452C398.788 125.749 398.678 125.265 398.326 125.046C396.395 123.838 394.383 122.765 392.303 121.837C392.212 121.793 392.113 121.768 392.013 121.763C391.912 121.758 391.812 121.773 391.718 121.808C391.623 121.843 391.536 121.897 391.463 121.966C391.39 122.035 391.332 122.118 391.291 122.21C391.251 122.3 391.229 122.397 391.225 122.495C391.222 122.593 391.238 122.691 391.273 122.782C391.308 122.874 391.361 122.958 391.428 123.03C391.495 123.101 391.575 123.159 391.665 123.199C393.683 124.128 395.644 125.178 397.535 126.342C397.655 126.412 397.792 126.45 397.931 126.452ZM385.685 120.87C385.864 120.862 386.034 120.792 386.167 120.672C386.299 120.552 386.387 120.39 386.413 120.213C386.439 120.037 386.402 119.856 386.31 119.703C386.217 119.55 386.074 119.434 385.905 119.375C383.741 118.685 381.539 118.12 379.31 117.683C379.213 117.66 379.113 117.657 379.015 117.674C378.917 117.691 378.824 117.726 378.74 117.78C378.656 117.833 378.583 117.902 378.526 117.984C378.469 118.065 378.43 118.157 378.409 118.255C378.387 118.353 378.384 118.455 378.402 118.554C378.42 118.653 378.458 118.748 378.513 118.832C378.569 118.916 378.641 118.988 378.725 119.044C378.809 119.099 378.903 119.137 379.002 119.156C381.178 119.596 383.328 120.153 385.444 120.826L385.685 120.87ZM352.49 120.189C354.638 119.449 356.844 118.89 359.085 118.518C359.183 118.505 359.278 118.472 359.364 118.421C359.45 118.371 359.525 118.304 359.584 118.224C359.643 118.144 359.686 118.053 359.71 117.956C359.733 117.86 359.738 117.759 359.722 117.661C359.685 117.467 359.576 117.294 359.417 117.176C359.258 117.058 359.061 117.004 358.865 117.024C356.618 117.379 354.41 117.946 352.269 118.716C352.111 118.785 351.981 118.906 351.9 119.058C351.818 119.211 351.79 119.386 351.821 119.556C351.851 119.726 351.938 119.881 352.068 119.996C352.197 120.111 352.361 120.178 352.534 120.189H352.49ZM374.715 118.716C374.871 118.719 375.024 118.671 375.151 118.58C375.278 118.489 375.372 118.359 375.419 118.211C376.14 116.049 376.735 113.848 377.2 111.617C377.219 111.521 377.219 111.421 377.199 111.325C377.18 111.228 377.141 111.136 377.086 111.054C377.031 110.973 376.96 110.903 376.878 110.848C376.795 110.794 376.703 110.757 376.606 110.738C376.411 110.699 376.208 110.736 376.04 110.842C375.872 110.949 375.752 111.116 375.704 111.31C375.26 113.488 374.688 115.638 373.99 117.749C373.959 117.843 373.947 117.942 373.955 118.04C373.962 118.139 373.99 118.235 374.035 118.322C374.08 118.41 374.142 118.488 374.217 118.552C374.292 118.616 374.38 118.664 374.474 118.694C374.523 118.711 374.575 118.718 374.627 118.716H374.715ZM372.517 118.189C372.715 118.189 372.905 118.11 373.045 117.97C373.186 117.83 373.264 117.64 373.264 117.441C373.264 117.243 373.186 117.053 373.045 116.913C372.905 116.773 372.715 116.694 372.517 116.694C370.245 116.476 367.962 116.388 365.68 116.43C365.478 116.442 365.288 116.53 365.149 116.677C365.01 116.824 364.932 117.019 364.932 117.222C364.958 117.416 365.051 117.596 365.196 117.728C365.341 117.861 365.528 117.938 365.724 117.947C367.925 117.909 370.127 117.99 372.319 118.189H372.517ZM377.507 105.552C377.699 105.548 377.883 105.474 378.024 105.345C378.166 105.215 378.256 105.039 378.277 104.848C378.453 102.958 378.54 101.024 378.54 99.1342V98.0354C378.535 97.8352 378.451 97.6452 378.308 97.5057C378.164 97.3661 377.972 97.2881 377.771 97.2882C377.67 97.285 377.57 97.3027 377.476 97.3405C377.383 97.3783 377.298 97.4353 377.228 97.5077C377.157 97.5801 377.103 97.6664 377.068 97.7611C377.033 97.8557 377.018 97.9566 377.024 98.0574V99.1122C377.024 100.973 376.936 102.841 376.76 104.717C376.748 104.815 376.756 104.915 376.784 105.011C376.813 105.106 376.86 105.195 376.924 105.271C376.988 105.348 377.067 105.41 377.156 105.454C377.245 105.499 377.342 105.524 377.441 105.53L377.507 105.552ZM377.244 92.0796C377.351 92.0773 377.456 92.0526 377.553 92.0072C377.65 91.9618 377.736 91.8967 377.807 91.816C377.877 91.7354 377.93 91.6408 377.961 91.5386C377.993 91.4364 378.003 91.3288 377.991 91.2225C377.685 88.9605 377.23 86.7212 376.628 84.5194C376.603 84.4238 376.559 84.3342 376.498 84.2558C376.438 84.1774 376.362 84.1118 376.277 84.0628C376.191 84.0137 376.096 83.9823 375.997 83.9701C375.899 83.9579 375.8 83.9654 375.704 83.992C375.609 84.0174 375.519 84.0615 375.441 84.1218C375.362 84.1821 375.297 84.2574 375.248 84.3433C375.199 84.4291 375.168 84.5239 375.155 84.622C375.143 84.7201 375.15 84.8197 375.177 84.915C375.755 87.0827 376.196 89.2849 376.496 91.5082C376.53 91.6541 376.606 91.7866 376.716 91.8885C376.826 91.9903 376.964 92.057 377.112 92.0796H377.244ZM373.704 79.0909C374.386 78.8712 374.562 78.4316 374.408 78.0361C373.511 75.9399 372.476 73.9061 371.308 71.9483C371.257 71.8631 371.19 71.7888 371.111 71.7295C371.032 71.6702 370.942 71.627 370.846 71.6025C370.75 71.578 370.65 71.5727 370.552 71.5868C370.454 71.6009 370.36 71.6341 370.274 71.6846C370.189 71.7351 370.115 71.8018 370.055 71.8811C369.996 71.9603 369.953 72.0505 369.929 72.1464C369.904 72.2423 369.899 72.3422 369.913 72.4402C369.927 72.5382 369.96 72.6324 370.011 72.7176C371.138 74.6195 372.137 76.5945 373 78.6295C373.048 78.7491 373.126 78.8543 373.226 78.9352C373.326 79.016 373.445 79.0697 373.572 79.0909H373.704ZM366.823 67.5528C367.615 67.1353 367.681 66.6518 367.417 66.3221C366.032 64.52 364.559 62.7838 363.02 61.1355C362.876 60.9945 362.683 60.9156 362.481 60.9156C362.28 60.9156 362.086 60.9945 361.942 61.1355C361.806 61.2818 361.731 61.4742 361.731 61.6739C361.731 61.8737 361.806 62.066 361.942 62.2123C363.459 63.8167 364.91 65.5309 366.339 67.2891C366.428 67.4093 366.551 67.501 366.691 67.5528H366.823ZM357.633 57.707C358.469 57.1356 358.447 56.674 358.117 56.3883C356.418 54.8841 354.642 53.4684 352.797 52.1467C352.716 52.089 352.625 52.0478 352.528 52.0254C352.431 52.003 352.331 51.9998 352.233 52.0162C352.135 52.0325 352.041 52.068 351.957 52.1205C351.873 52.1731 351.8 52.2417 351.742 52.3225C351.684 52.4034 351.643 52.4947 351.621 52.5915C351.598 52.6882 351.595 52.7885 351.611 52.8865C351.628 52.9844 351.663 53.0781 351.716 53.1624C351.768 53.2466 351.837 53.3197 351.918 53.3774C353.721 54.6814 355.457 56.066 357.128 57.5312C357.232 57.6258 357.363 57.6871 357.502 57.707H357.633ZM346.641 49.8611C347.521 49.1139 347.389 48.6523 347.015 48.4325C345.081 47.3117 343.036 46.2348 340.97 45.3118C340.881 45.2682 340.784 45.2433 340.685 45.2387C340.586 45.234 340.487 45.2497 340.394 45.2847C340.301 45.3197 340.217 45.3732 340.146 45.4421C340.075 45.5111 340.018 45.5938 339.98 45.6853C339.897 45.8633 339.887 46.067 339.953 46.2521C340.019 46.4372 340.155 46.5888 340.332 46.6743C342.377 47.6194 344.355 48.6524 346.268 49.7512C346.354 49.8072 346.451 49.8446 346.553 49.8611H346.641ZM334.419 44.2129C335.254 43.3118 335.056 42.8943 334.66 42.7405C332.462 41.9932 330.263 41.3338 328.065 40.7624C327.97 40.7358 327.87 40.7285 327.772 40.7406C327.674 40.7528 327.579 40.7843 327.493 40.8334C327.407 40.8825 327.332 40.9481 327.272 41.0264C327.211 41.1048 327.167 41.1944 327.142 41.2899C327.115 41.3852 327.107 41.4848 327.12 41.5829C327.132 41.681 327.163 41.7758 327.212 41.8616C327.262 41.9475 327.327 42.0227 327.406 42.083C327.484 42.1433 327.574 42.1876 327.669 42.213C329.868 42.7844 332.066 43.4436 334.066 44.1689L334.419 44.2129ZM321.36 40.8284C321.544 40.8176 321.719 40.7408 321.851 40.612C321.984 40.4833 322.065 40.3111 322.081 40.1272C322.097 39.9432 322.046 39.7596 321.938 39.6099C321.83 39.4602 321.671 39.3545 321.492 39.312C319.293 38.9384 316.985 38.6306 314.742 38.4328C314.642 38.4173 314.539 38.4231 314.441 38.4497C314.343 38.4764 314.252 38.5234 314.173 38.5876C314.095 38.6519 314.03 38.7319 313.984 38.8227C313.938 38.9134 313.912 39.0126 313.907 39.1141C313.898 39.2123 313.908 39.3114 313.938 39.4056C313.967 39.4997 314.015 39.587 314.078 39.6626C314.142 39.7382 314.219 39.8005 314.307 39.8459C314.395 39.8914 314.49 39.9191 314.589 39.9274C316.787 40.1471 318.986 40.4328 321.184 40.8064L321.36 40.8284ZM301.178 39.8834C303.209 39.6847 305.249 39.5893 307.29 39.5976C308.345 39.5976 308.675 39.268 308.675 38.8724C308.681 38.7735 308.666 38.6745 308.633 38.5813C308.599 38.4882 308.547 38.403 308.479 38.3309C308.411 38.2588 308.329 38.2015 308.238 38.1623C308.147 38.1231 308.049 38.103 307.949 38.1032C305.659 38.0511 303.368 38.1466 301.09 38.3889C300.892 38.3889 300.702 38.4676 300.561 38.6078C300.421 38.7479 300.343 38.938 300.343 39.1361C300.343 39.3343 300.421 39.5244 300.561 39.6645C300.702 39.8046 300.892 39.8834 301.09 39.8834H301.178Z" fill="black"/>
<path d="M100.242 342.292C100.506 342.292 112.18 339.523 112.861 328.204C113.03 326.842 112.89 325.46 112.452 324.159C112.015 322.858 111.29 321.672 110.333 320.688C106.662 317.193 100.484 317.831 100.22 317.853C100.04 317.897 99.8809 318.004 99.7734 318.156C99.6659 318.308 99.6167 318.493 99.6354 318.678C99.6542 318.863 99.7396 319.035 99.8754 319.162C100.011 319.289 100.188 319.363 100.374 319.369C100.374 319.369 106.134 318.798 109.168 321.787C109.966 322.619 110.566 323.62 110.924 324.716C111.282 325.811 111.388 326.974 111.235 328.116C110.619 338.292 100.396 340.709 99.9564 340.797C99.8592 340.818 99.7675 340.858 99.6859 340.915C99.6043 340.971 99.5346 341.044 99.4814 341.128C99.4282 341.212 99.3922 341.305 99.3757 341.403C99.3591 341.501 99.3621 341.601 99.3848 341.698C99.4271 341.887 99.5389 342.052 99.6977 342.162C99.8566 342.272 100.051 342.318 100.242 342.292Z" fill="black"/>
<path d="M100.66 348.423C100.924 348.423 120.116 346.225 118.841 328.226C118.82 325.824 118.296 323.453 117.304 321.266C116.312 319.078 114.874 317.122 113.081 315.523C109.456 312.769 104.929 311.475 100.396 311.897C100.296 311.905 100.2 311.933 100.112 311.98C100.023 312.027 99.9459 312.092 99.8839 312.17C99.822 312.249 99.7773 312.339 99.7519 312.436C99.7266 312.532 99.7214 312.633 99.7369 312.732C99.7643 312.928 99.8662 313.107 100.022 313.229C100.178 313.352 100.375 313.41 100.572 313.391C104.7 313.042 108.813 314.215 112.136 316.688C113.754 318.164 115.051 319.959 115.944 321.96C116.837 323.96 117.307 326.123 117.324 328.314C118.511 344.951 101.32 346.841 100.594 346.929C100.495 346.934 100.398 346.96 100.308 347.004C100.219 347.049 100.141 347.111 100.077 347.187C100.013 347.263 99.9647 347.352 99.9365 347.448C99.9083 347.543 99.9002 347.643 99.9124 347.742C99.9336 347.927 100.021 348.097 100.159 348.223C100.296 348.348 100.474 348.419 100.66 348.423Z" fill="black"/>
<path d="M80.6984 353.522C82.8968 353.522 100.968 353.522 100.968 349.698C100.968 349.498 100.89 349.305 100.75 349.162C100.611 349.018 100.421 348.935 100.221 348.929C100.017 348.929 99.8207 349.01 99.6764 349.154C99.5321 349.298 99.451 349.494 99.451 349.698C98.9014 350.577 91.8664 352.006 80.6984 352.006C68.717 352.006 62.6055 350.401 62.1438 349.61C62.1471 349.512 62.1296 349.415 62.0928 349.324C62.0561 349.233 62.0011 349.15 61.9308 349.082C61.8604 349.014 61.7764 348.961 61.6844 348.927C61.5924 348.893 61.4941 348.879 61.3962 348.885C61.1901 348.896 60.9969 348.988 60.8573 349.139C60.7177 349.291 60.643 349.492 60.6491 349.698C60.6491 353.412 78.6539 353.522 80.6984 353.522Z" fill="black"/>
<path d="M79.1594 292.161H80.1486C89.36 291.898 93.1636 287.414 94.7244 283.7C97.7363 276.514 94.7243 267.063 90.1956 262.052C90.1956 262.052 86.9637 258.25 90.0195 249.042C91.0105 246.48 91.4144 243.729 91.2014 240.99C90.9883 238.252 90.1636 235.596 88.7883 233.218C87.4153 231.228 85.6027 229.58 83.4908 228.403C81.3789 227.225 79.0246 226.549 76.6095 226.427C75.9279 226.427 75.2681 226.317 74.6306 226.317C72.2819 226.286 69.9576 226.793 67.8351 227.798C65.7126 228.804 63.8485 230.282 62.3857 232.119C60.8407 233.986 59.7151 236.163 59.0854 238.502C58.4558 240.842 58.3365 243.29 58.736 245.679L58.9341 246.69C60.407 253.635 60.8905 255.987 58.758 262.997C57.8017 266.65 57.6304 270.464 58.2556 274.188C58.8809 277.912 60.2888 281.461 62.3857 284.601C66.211 289.612 71.8607 292.161 79.1594 292.161ZM74.6306 227.812C75.231 227.779 75.8329 227.779 76.4334 227.812C78.6116 227.93 80.7341 228.544 82.639 229.607C84.5439 230.669 86.1808 232.153 87.4255 233.943C88.6784 236.127 89.4257 238.563 89.6121 241.074C89.7986 243.584 89.4194 246.104 88.5027 248.448C85.1172 258.602 88.8324 262.8 88.9863 262.975C93.1853 267.525 95.9991 276.47 93.2291 282.997C91.2505 287.744 86.6339 290.337 80.0386 290.535C72.6519 290.799 67.1339 288.337 63.5504 283.59C61.6053 280.639 60.298 277.314 59.7112 273.829C59.1245 270.344 59.2717 266.774 60.1433 263.349C62.3417 255.943 61.8358 253.305 60.3628 246.273L60.1433 245.262C59.7949 243.091 59.9123 240.87 60.4884 238.748C61.0646 236.626 62.0863 234.651 63.4849 232.954C64.8405 231.286 66.564 229.953 68.5205 229.061C70.477 228.169 72.6133 227.741 74.7626 227.812H74.6306Z" fill="black"/>
<path d="M61.8576 223.658C65.529 223.658 68.4529 219.262 68.4529 213.878C68.4529 208.493 65.463 204.12 61.8576 204.12C58.2522 204.12 55.2624 208.515 55.2624 213.878C55.2624 219.24 58.1863 223.658 61.8576 223.658ZM61.8576 205.636C64.6936 205.636 67.0021 209.329 67.0021 213.878C67.0021 218.427 64.8035 222.141 61.8576 222.141C58.9117 222.141 56.7137 218.427 56.7137 213.878C56.7137 209.329 59.0217 205.636 61.8576 205.636Z" fill="black"/>
<path d="M61.3961 350.445C61.5964 350.445 61.7891 350.367 61.9328 350.228C62.0765 350.088 62.16 349.898 62.1658 349.698V310.864C62.1658 310.66 62.0846 310.464 61.9403 310.32C61.796 310.176 61.6002 310.095 61.3961 310.095C61.1959 310.1 61.0059 310.184 60.8664 310.328C60.7268 310.471 60.6489 310.664 60.649 310.864V349.698C60.649 349.896 60.7278 350.086 60.868 350.226C61.0081 350.366 61.1979 350.445 61.3961 350.445Z" fill="black"/>
<path d="M100.243 350.753C100.441 350.753 100.631 350.674 100.771 350.534C100.911 350.394 100.99 350.204 100.99 350.006V310.447C100.99 310.248 100.911 310.058 100.771 309.918C100.631 309.778 100.441 309.699 100.243 309.699C100.042 309.699 99.8496 309.777 99.7059 309.917C99.5622 310.056 99.4787 310.246 99.473 310.447V350.006C99.4787 350.206 99.5622 350.396 99.7059 350.535C99.8496 350.675 100.042 350.753 100.243 350.753Z" fill="black"/>
<path d="M80.8084 315.282C88.305 315.282 100.99 314.337 100.99 310.886C100.99 307.436 88.305 306.491 80.8084 306.491C73.3118 306.491 60.649 307.414 60.649 310.886C60.649 314.358 73.3338 315.282 80.8084 315.282ZM80.8084 307.963C92.6139 307.963 99.2311 309.853 99.473 310.864C99.2311 311.875 92.6139 313.765 80.8084 313.765C69.0029 313.765 62.4076 311.875 62.1658 310.842C62.4076 309.853 69.0248 307.963 80.8084 307.963Z" fill="black"/>
<path d="M90.4156 229.438H167.624C167.828 229.438 168.024 229.357 168.168 229.213C168.312 229.068 168.394 228.873 168.394 228.669C168.388 228.468 168.304 228.278 168.161 228.139C168.017 227.999 167.824 227.921 167.624 227.922H90.4156C90.2153 227.921 90.0226 227.999 89.8789 228.139C89.7352 228.278 89.6517 228.468 89.6459 228.669C89.6459 228.873 89.7271 229.068 89.8714 229.213C90.0157 229.357 90.2115 229.438 90.4156 229.438Z" fill="black"/>
<path d="M8.06224 229.438H54.2291C54.4332 229.438 54.629 229.357 54.7733 229.213C54.9176 229.068 54.9988 228.873 54.9988 228.669C54.993 228.469 54.9095 228.279 54.7658 228.139C54.6221 227.999 54.4294 227.921 54.2291 227.922H8.80989V44.3668H224.915V180.626C224.915 180.83 224.996 181.026 225.14 181.17C225.285 181.314 225.48 181.395 225.684 181.395C225.884 181.39 226.075 181.306 226.214 181.163C226.354 181.019 226.432 180.827 226.432 180.626V43.6635C226.432 43.4653 226.353 43.2752 226.213 43.1351C226.072 42.995 225.882 42.9163 225.684 42.9163H8.04024C7.842 42.9163 7.65227 42.995 7.5121 43.1351C7.37192 43.2752 7.29312 43.4653 7.29312 43.6635V228.669C7.29312 228.77 7.31294 228.87 7.35162 228.963C7.39029 229.056 7.44708 229.141 7.51854 229.213C7.58998 229.284 7.67476 229.341 7.76811 229.379C7.86147 229.418 7.9612 229.438 8.06224 229.438Z" fill="black"/>
<path d="M8.06245 64.2782H225.706C225.804 64.2782 225.902 64.2589 225.992 64.2213C226.083 64.1838 226.165 64.1287 226.235 64.0593C226.304 63.9899 226.359 63.9076 226.397 63.8169C226.435 63.7262 226.454 63.629 226.454 63.5309V43.7513C226.454 43.6532 226.435 43.5561 226.397 43.4655C226.359 43.3748 226.304 43.2923 226.235 43.2229C226.165 43.1535 226.083 43.0986 225.992 43.061C225.902 43.0235 225.804 43.0042 225.706 43.0042H8.06245C7.86421 43.0042 7.67448 43.0828 7.53432 43.2229C7.39413 43.3631 7.31534 43.5531 7.31534 43.7513V63.5309C7.31534 63.7291 7.39413 63.9192 7.53432 64.0593C7.67448 64.1994 7.86421 64.2782 8.06245 64.2782ZM224.937 62.7618H8.8101V44.3667H224.915L224.937 62.7618Z" fill="black"/>
<path d="M21.7586 195.483H111.894C112.098 195.483 112.294 195.402 112.438 195.258C112.582 195.113 112.664 194.918 112.664 194.714V82.6292C112.658 82.4291 112.574 82.2391 112.431 82.0995C112.287 81.96 112.094 81.882 111.894 81.8821H21.7586C21.5583 81.882 21.3661 81.96 21.2224 82.0995C21.0788 82.2391 20.9952 82.4291 20.9895 82.6292V194.714C20.9895 194.918 21.0706 195.113 21.2149 195.258C21.3592 195.402 21.5546 195.483 21.7586 195.483ZM111.213 193.967H22.5063V83.4644H111.213V193.967Z" fill="black"/>
<path d="M76.3456 160.979C76.5438 160.979 76.7341 160.9 76.8743 160.76C77.0145 160.619 77.0933 160.429 77.0933 160.231V153.638C77.0875 153.438 77.004 153.248 76.8603 153.108C76.7166 152.969 76.5239 152.891 76.3236 152.891C76.2254 152.891 76.1282 152.91 76.0375 152.948C75.9468 152.985 75.8643 153.04 75.7949 153.11C75.7255 153.179 75.6709 153.262 75.6334 153.352C75.5958 153.443 75.5765 153.54 75.5765 153.638V160.231C75.5822 160.431 75.6657 160.622 75.8094 160.761C75.9531 160.901 76.1453 160.979 76.3456 160.979Z" fill="black"/>
<path d="M76.9611 154.517C80.3668 154.649 83.7388 153.803 86.678 152.078C92.9435 148.078 91.3168 140.935 90.1516 135.726C89.8658 134.496 89.6019 133.309 89.492 132.386C88.9424 127.661 87.9972 108.562 87.9752 108.365C87.9638 108.165 87.8745 107.977 87.7267 107.841C87.5789 107.706 87.384 107.633 87.1835 107.639C87.0833 107.645 86.9854 107.671 86.8953 107.715C86.8052 107.759 86.7248 107.821 86.6592 107.897C86.5935 107.973 86.5439 108.061 86.5132 108.156C86.4824 108.252 86.4714 108.353 86.4804 108.453C86.4804 109.222 87.4476 127.793 87.9752 132.628C88.1071 133.639 88.3711 134.825 88.6569 136.122C89.8 141.155 91.229 147.44 85.8648 150.869C78.9838 155.264 67.4202 151.616 67.3103 151.572C67.1251 151.533 66.9315 151.563 66.7671 151.656C66.6027 151.75 66.4786 151.902 66.4188 152.081C66.3589 152.261 66.3678 152.456 66.4429 152.63C66.5181 152.803 66.6543 152.943 66.8261 153.023C70.1182 153.99 73.5297 154.493 76.9611 154.517Z" fill="black"/>
<path d="M56.4274 125.903C56.5344 125.9 56.6401 125.876 56.737 125.83C56.834 125.785 56.92 125.72 56.9904 125.639C57.0607 125.559 57.1137 125.464 57.1455 125.362C57.1772 125.26 57.1873 125.152 57.175 125.046C56.3396 119.375 59.3732 112.892 60.2306 111.112C69.2812 112.627 78.5638 111.941 87.2933 109.112C87.388 109.08 87.4751 109.029 87.5498 108.963C87.6246 108.897 87.6855 108.816 87.7286 108.726C87.7716 108.636 87.7959 108.538 87.8005 108.438C87.805 108.338 87.7895 108.239 87.7549 108.145C87.6853 107.957 87.5458 107.804 87.3652 107.718C87.1846 107.632 86.9773 107.62 86.7877 107.683C78.1224 110.429 68.9245 111.054 59.9671 109.508C59.8093 109.474 59.6446 109.492 59.498 109.559C59.3513 109.627 59.2305 109.74 59.1534 109.881C58.9775 110.233 54.625 118.123 55.6802 125.265C55.7068 125.444 55.7967 125.607 55.9341 125.724C56.0715 125.841 56.2468 125.905 56.4274 125.903Z" fill="black"/>
<path d="M47.0182 122.936C47.6338 122.782 47.8538 122.342 47.7438 121.947C47.6339 121.551 42.6217 105.332 47.3483 99.9694C50.7778 96.1233 52.6023 96.541 55.8999 97.2882C57.3443 97.649 58.8142 97.8987 60.2967 98.0354C63.9022 98.387 67.1562 96.5409 70.5857 94.6069C75.2024 92.0136 79.951 89.3324 85.9747 91.8159C88.318 92.6771 90.3232 94.2666 91.6962 96.3512C93.0692 98.4358 93.7377 100.906 93.6032 103.398C93.5691 105.285 92.9193 107.109 91.7525 108.593C90.5858 110.077 88.9656 111.139 87.1394 111.617C87.0427 111.638 86.9512 111.678 86.8705 111.735C86.7898 111.792 86.7218 111.865 86.6703 111.949C86.6188 112.034 86.5853 112.128 86.5715 112.226C86.5577 112.324 86.5637 112.423 86.5898 112.518C86.6128 112.616 86.6555 112.708 86.7148 112.789C86.7741 112.87 86.8493 112.938 86.9354 112.989C87.0216 113.04 87.1168 113.074 87.2161 113.087C87.3155 113.101 87.4167 113.094 87.5135 113.068C89.6491 112.519 91.5472 111.288 92.9199 109.563C94.2926 107.837 95.0651 105.712 95.1199 103.508C95.2971 100.681 94.5591 97.8718 93.0149 95.4969C91.4707 93.122 89.2026 91.3071 86.5463 90.3213C79.7752 87.5741 74.4767 90.563 69.7941 93.2003C66.5624 95.0025 63.5285 96.7168 60.3408 96.453C58.9055 96.2998 57.4812 96.0576 56.0759 95.7278C52.6024 94.9366 50.0961 94.3871 46.073 98.8925C40.7748 104.826 45.9191 121.551 46.073 122.254C46.0826 122.365 46.1161 122.471 46.1707 122.568C46.2253 122.664 46.3 122.747 46.3897 122.812C46.4794 122.876 46.5818 122.921 46.6903 122.942C46.7988 122.964 46.9106 122.961 47.0182 122.936Z" fill="black"/>
<path d="M61.8798 119.222C63.0359 118.364 64.3003 117.662 65.6395 117.134C65.7387 117.114 65.8323 117.073 65.9149 117.014C65.9974 116.956 66.0671 116.881 66.1188 116.794C66.1706 116.707 66.2033 116.61 66.2154 116.51C66.2275 116.409 66.2188 116.307 66.1891 116.211C66.1284 116.023 66.0011 115.863 65.8311 115.762C65.6612 115.661 65.4599 115.625 65.2654 115.661C63.8107 116.087 62.4723 116.838 61.3522 117.859C61.2126 117.999 61.1343 118.189 61.1343 118.386C61.1343 118.584 61.2126 118.774 61.3522 118.914C61.4154 118.998 61.4945 119.068 61.5851 119.121C61.6757 119.174 61.7758 119.208 61.8798 119.222Z" fill="black"/>
<path d="M84.2378 118.738C85.0732 118.277 85.0952 117.793 84.8095 117.485C83.7452 116.509 82.4129 115.874 80.9842 115.661C80.7866 115.636 80.5865 115.688 80.4266 115.807C80.2666 115.926 80.1591 116.102 80.1265 116.299C80.111 116.397 80.1151 116.497 80.1389 116.594C80.1627 116.69 80.2056 116.781 80.265 116.861C80.3244 116.941 80.3994 117.008 80.4851 117.059C80.5708 117.109 80.6656 117.142 80.7642 117.156C81.8496 117.305 82.867 117.771 83.6882 118.496C83.8326 118.646 84.03 118.733 84.2378 118.738Z" fill="black"/>
<path d="M80.4347 136.54C81.2042 135.639 81.6216 130.628 78.4998 121.925C78.4303 121.737 78.2902 121.584 78.1097 121.498C77.9291 121.412 77.7223 121.399 77.5327 121.463C77.438 121.495 77.3509 121.546 77.2761 121.612C77.2014 121.679 77.1404 121.759 77.0974 121.849C77.0543 121.939 77.03 122.037 77.0255 122.137C77.0209 122.237 77.0364 122.337 77.0711 122.43C78.5888 126.377 79.4789 130.537 79.7091 134.76L77.0051 133.858C76.8126 133.801 76.6056 133.82 76.4259 133.909C76.2463 133.999 76.1077 134.154 76.0379 134.342C75.9751 134.534 75.9903 134.744 76.0808 134.925C76.1714 135.106 76.3298 135.244 76.5215 135.309L80.2147 136.518L80.4347 136.54Z" fill="black"/>
<path d="M50.0526 137.177C51.6159 137.179 53.1452 136.72 54.4494 135.858C54.6079 135.747 54.7169 135.579 54.7537 135.389C54.7906 135.199 54.7523 135.002 54.6469 134.84C54.5415 134.678 54.3771 134.562 54.1886 134.519C54 134.475 53.8018 134.506 53.6357 134.606C52.5512 135.294 51.2933 135.66 50.0085 135.661C48.8384 135.635 47.6961 135.298 46.6991 134.685C45.7021 134.072 44.8863 133.205 44.3354 132.172C43.7844 131.14 43.5182 129.98 43.5641 128.81C43.61 127.641 43.9666 126.505 44.5968 125.519C45.2269 124.533 46.108 123.733 47.15 123.2C48.1919 122.667 49.3573 122.42 50.526 122.486C51.6946 122.552 52.8245 122.928 53.8 123.574C54.7754 124.221 55.5609 125.116 56.0762 126.166C56.1165 126.259 56.1748 126.342 56.248 126.411C56.3212 126.48 56.4079 126.534 56.5024 126.569C56.5968 126.603 56.697 126.619 56.7976 126.614C56.8981 126.609 56.9968 126.584 57.0874 126.54C57.1778 126.498 57.2589 126.438 57.3257 126.364C57.3925 126.29 57.4437 126.203 57.4765 126.109C57.5093 126.014 57.5232 125.915 57.5168 125.815C57.5104 125.716 57.4841 125.618 57.4395 125.529C56.8204 124.195 55.8536 123.053 54.641 122.221C53.4284 121.389 52.0144 120.898 50.5469 120.8C49.0794 120.702 47.6128 121.001 46.3003 121.664C44.9879 122.328 43.8778 123.332 43.087 124.572C42.2961 125.811 41.8536 127.241 41.8053 128.71C41.757 130.18 42.105 131.635 42.8127 132.924C43.5204 134.213 44.562 135.288 45.828 136.036C47.094 136.784 48.5378 137.178 50.0085 137.177H50.0526Z" fill="black"/>
<path d="M65.7491 168.802C76.7412 168.802 77.0933 160.319 77.0933 160.231C77.0933 160.031 77.0149 159.839 76.8754 159.695C76.7358 159.551 76.5458 159.468 76.3456 159.462C76.1469 159.467 75.9573 159.547 75.8148 159.686C75.6722 159.824 75.5875 160.011 75.5765 160.209C75.5765 160.495 75.3122 167.264 65.7931 167.286C55.1307 167.286 51.6794 161.638 51.1518 160.693V136.518C51.1518 136.314 51.0707 136.118 50.9264 135.974C50.7821 135.83 50.5862 135.749 50.3821 135.749C50.1819 135.754 49.9919 135.838 49.8524 135.981C49.7128 136.125 49.6349 136.317 49.635 136.518V160.847C49.8548 161.462 53.328 168.802 65.7491 168.802Z" fill="black"/>
<path d="M83.6883 125.683C83.801 125.677 83.9112 125.649 84.0131 125.601C84.1149 125.553 84.2064 125.485 84.282 125.401C84.3575 125.317 84.416 125.22 84.4537 125.113C84.4914 125.007 84.5074 124.894 84.5015 124.782L84.37 122.364C84.3531 122.139 84.2496 121.929 84.0818 121.777C83.9139 121.626 83.6943 121.545 83.4683 121.551C83.3556 121.557 83.2455 121.585 83.1436 121.633C83.0417 121.681 82.9502 121.749 82.8747 121.833C82.7991 121.917 82.7406 122.014 82.7029 122.121C82.6652 122.227 82.6492 122.34 82.6552 122.452V124.87C82.6625 124.994 82.6958 125.115 82.7534 125.225C82.8109 125.335 82.8914 125.432 82.989 125.508C83.0866 125.585 83.1991 125.64 83.3196 125.671C83.4402 125.701 83.5661 125.705 83.6883 125.683Z" fill="black"/>
<path d="M69.2005 126.276C69.3151 126.273 69.4278 126.248 69.5322 126.201C69.6367 126.154 69.7308 126.086 69.8087 126.002C69.8865 125.918 69.9467 125.819 69.9858 125.712C70.0248 125.604 70.0421 125.489 70.0362 125.375L69.9042 122.958C69.8873 122.732 69.7843 122.522 69.6165 122.371C69.4487 122.219 69.2285 122.138 69.0025 122.145C68.8889 122.147 68.7773 122.173 68.674 122.22C68.5707 122.268 68.478 122.336 68.4019 122.42C68.3258 122.504 68.2678 122.603 68.2312 122.711C68.1947 122.818 68.1804 122.932 68.1894 123.046V125.463C68.1937 125.586 68.2244 125.707 68.2795 125.817C68.3347 125.927 68.4127 126.024 68.5087 126.101C68.6047 126.178 68.7162 126.234 68.8356 126.264C68.9549 126.294 69.0794 126.298 69.2005 126.276Z" fill="black"/>
<path d="M75.8176 143.265C76.2133 143.133 80.8741 140.188 80.8741 140.188C80.9611 140.136 81.0366 140.067 81.0963 139.986C81.1559 139.904 81.1982 139.811 81.2208 139.712C81.2434 139.614 81.2459 139.511 81.2278 139.412C81.2097 139.312 81.1715 139.217 81.1156 139.133C81.0642 139.048 80.9966 138.975 80.9159 138.918C80.8352 138.861 80.7433 138.821 80.6465 138.8C80.5497 138.779 80.4499 138.779 80.3529 138.798C80.2559 138.818 80.1637 138.857 80.0824 138.913L75.9936 141.485L72.1684 136.386C72.1092 136.306 72.035 136.24 71.95 136.189C71.8649 136.138 71.7705 136.105 71.6725 136.09C71.5745 136.076 71.4749 136.081 71.3789 136.106C71.2829 136.13 71.1926 136.173 71.1132 136.232C71.0338 136.291 70.9669 136.365 70.9162 136.45C70.8655 136.535 70.8318 136.63 70.8175 136.728C70.8032 136.826 70.8082 136.925 70.8325 137.021C70.8568 137.117 70.9 137.208 70.9592 137.287L75.202 142.957C75.2736 143.053 75.3667 143.13 75.4735 143.184C75.5804 143.237 75.6981 143.265 75.8176 143.265Z" fill="black"/>
<path d="M111.96 184.56C112.619 184.362 112.817 183.923 112.664 183.527C105.277 163.748 77.6207 160.209 76.4336 160.078C76.3354 160.066 76.2362 160.074 76.141 160.101C76.0459 160.128 75.9567 160.173 75.8791 160.234C75.8016 160.295 75.7368 160.371 75.6886 160.458C75.6404 160.544 75.6094 160.639 75.5979 160.737C75.5863 160.835 75.5946 160.934 75.6215 161.029C75.6484 161.124 75.6939 161.213 75.7551 161.291C75.8164 161.369 75.8922 161.433 75.9784 161.481C76.0647 161.53 76.1594 161.56 76.2575 161.572C76.5433 161.572 104.178 165.176 111.257 184.055C111.307 184.202 111.402 184.329 111.528 184.42C111.654 184.51 111.805 184.559 111.96 184.56Z" fill="black"/>
<path d="M21.7587 174.033C33.1026 163.836 50.3383 161.682 50.4702 161.66C50.6685 161.637 50.8494 161.535 50.9731 161.379C51.0968 161.222 51.1532 161.023 51.1299 160.825C51.1065 160.627 51.0053 160.446 50.8486 160.322C50.6919 160.198 50.4929 160.142 50.2947 160.165C49.5692 160.165 32.4211 162.363 21.2311 172.715C21.0901 172.858 21.0116 173.052 21.0116 173.253C21.0116 173.454 21.0901 173.648 21.2311 173.791C21.2985 173.865 21.3799 173.924 21.4705 173.966C21.5611 174.007 21.6591 174.03 21.7587 174.033Z" fill="black"/>
<path d="M136.098 96.8267H182.485C182.74 96.8296 182.993 96.7816 183.229 96.6854C183.465 96.5893 183.68 96.447 183.86 96.2668C184.04 96.0866 184.182 95.8723 184.278 95.6363C184.375 95.4004 184.422 95.1475 184.42 94.8927V80.3437C184.42 79.8308 184.216 79.3388 183.853 78.9761C183.49 78.6134 182.998 78.4097 182.485 78.4097H136.12C135.609 78.4154 135.12 78.621 134.759 78.9824C134.397 79.3439 134.192 79.8325 134.186 80.3437V94.9147C134.192 95.42 134.395 95.903 134.752 96.2604C135.11 96.6177 135.593 96.821 136.098 96.8267ZM182.485 79.9261C182.903 80.3437 182.903 94.8927 182.903 94.8927C182.485 95.3322 136.12 95.3322 136.12 95.3322C135.703 94.8927 135.703 80.3437 135.703 80.3437C136.098 79.9261 182.485 79.9261 182.485 79.9261Z" fill="black"/>
<path d="M151.84 88.3214H178.221C178.38 88.3157 178.531 88.2484 178.641 88.1336C178.752 88.0188 178.814 87.8654 178.814 87.706C178.814 87.5486 178.752 87.3977 178.64 87.2864C178.529 87.1751 178.378 87.1127 178.221 87.1127H151.84C151.68 87.1126 151.527 87.1743 151.412 87.285C151.297 87.3957 151.23 87.5466 151.224 87.706C151.229 87.8674 151.296 88.0208 151.41 88.1351C151.524 88.2493 151.678 88.3159 151.84 88.3214Z" fill="black"/>
<path d="M147.068 83.926H178.264C178.405 83.8991 178.532 83.824 178.623 83.7137C178.714 83.6034 178.764 83.4647 178.764 83.3216C178.764 83.1785 178.714 83.0399 178.623 82.9296C178.532 82.8193 178.405 82.7442 178.264 82.7173H147.068C146.928 82.7442 146.801 82.8193 146.71 82.9296C146.619 83.0399 146.569 83.1785 146.569 83.3216C146.569 83.4647 146.619 83.6034 146.71 83.7137C146.801 83.824 146.928 83.8991 147.068 83.926Z" fill="black"/>
<path d="M156.983 93.1345H178.265C178.424 93.1288 178.575 93.0615 178.685 92.9467C178.796 92.8319 178.858 92.6785 178.858 92.5191C178.858 92.3617 178.796 92.2108 178.684 92.0995C178.573 91.9882 178.422 91.9258 178.265 91.9258H156.983C156.826 91.9258 156.675 91.9882 156.564 92.0995C156.452 92.2108 156.39 92.3617 156.39 92.5191C156.39 92.6785 156.452 92.8319 156.563 92.9467C156.673 93.0615 156.824 93.1288 156.983 93.1345Z" fill="black"/>
<path d="M136.098 154.122H182.485C182.998 154.122 183.49 153.918 183.853 153.555C184.216 153.192 184.42 152.701 184.42 152.188V137.639C184.422 137.383 184.375 137.129 184.279 136.892C184.183 136.655 184.041 136.439 183.861 136.257C183.681 136.075 183.467 135.93 183.231 135.832C182.995 135.733 182.741 135.683 182.485 135.683H136.12C135.605 135.688 135.113 135.897 134.751 136.263C134.389 136.629 134.186 137.124 134.186 137.639V152.188C134.192 152.695 134.394 153.18 134.751 153.541C135.108 153.902 135.591 154.11 136.098 154.122ZM182.463 137.199C182.881 137.639 182.881 152.188 182.881 152.188C182.463 152.605 136.098 152.605 136.098 152.605C135.681 152.188 135.681 137.639 135.681 137.639C136.098 137.199 182.485 137.199 182.485 137.199H182.463Z" fill="black"/>
<path d="M151.839 145.463H178.221C178.361 145.436 178.488 145.361 178.579 145.25C178.67 145.14 178.72 145.001 178.72 144.858C178.72 144.715 178.67 144.576 178.579 144.466C178.488 144.356 178.361 144.281 178.221 144.254H151.839C151.75 144.237 151.658 144.24 151.571 144.262C151.483 144.284 151.401 144.326 151.331 144.384C151.261 144.442 151.205 144.514 151.166 144.596C151.128 144.678 151.108 144.767 151.108 144.858C151.108 144.949 151.128 145.038 151.166 145.12C151.205 145.202 151.261 145.275 151.331 145.332C151.401 145.39 151.483 145.432 151.571 145.454C151.658 145.477 151.75 145.48 151.839 145.463Z" fill="black"/>
<path d="M147.069 140.913H178.265C178.422 140.913 178.573 140.851 178.684 140.739C178.796 140.628 178.858 140.477 178.858 140.32C178.858 140.16 178.796 140.007 178.685 139.892C178.575 139.777 178.424 139.71 178.265 139.704H147.069C146.909 139.71 146.758 139.777 146.648 139.892C146.537 140.007 146.475 140.16 146.475 140.32C146.475 140.477 146.537 140.628 146.649 140.739C146.76 140.851 146.911 140.913 147.069 140.913Z" fill="black"/>
<path d="M156.983 150.1H178.264C178.405 150.073 178.532 149.998 178.623 149.887C178.714 149.777 178.764 149.639 178.764 149.495C178.764 149.352 178.714 149.214 178.623 149.103C178.532 148.993 178.405 148.918 178.264 148.891H156.983C156.843 148.918 156.716 148.993 156.625 149.103C156.534 149.214 156.484 149.352 156.484 149.495C156.484 149.639 156.534 149.777 156.625 149.887C156.716 149.998 156.843 150.073 156.983 150.1Z" fill="black"/>
<path d="M164.898 125.397H211.263C211.517 125.397 211.768 125.347 212.003 125.25C212.238 125.153 212.451 125.01 212.63 124.831C212.81 124.651 212.953 124.438 213.05 124.203C213.147 123.969 213.197 123.717 213.197 123.463V108.914C213.2 108.659 213.152 108.407 213.056 108.171C212.96 107.935 212.818 107.72 212.637 107.54C212.457 107.36 212.242 107.218 212.006 107.121C211.77 107.025 211.518 106.977 211.263 106.98H164.898C164.643 106.977 164.39 107.025 164.154 107.121C163.918 107.218 163.704 107.36 163.523 107.54C163.343 107.72 163.201 107.935 163.105 108.171C163.008 108.407 162.961 108.659 162.964 108.914V123.485C162.969 123.994 163.176 124.48 163.538 124.838C163.9 125.196 164.389 125.397 164.898 125.397ZM211.263 108.497C211.68 108.914 211.68 123.463 211.68 123.463C211.263 123.881 164.898 123.881 164.898 123.881C164.48 123.463 164.48 108.914 164.48 108.914C164.898 108.497 211.219 108.497 211.219 108.497H211.263Z" fill="black"/>
<path d="M180.661 116.65H207.042C207.121 116.653 207.201 116.64 207.276 116.611C207.35 116.583 207.418 116.54 207.476 116.484C207.533 116.429 207.579 116.363 207.61 116.289C207.641 116.216 207.657 116.137 207.657 116.057C207.657 115.894 207.592 115.737 207.477 115.622C207.361 115.506 207.205 115.442 207.042 115.442H180.661C180.58 115.442 180.5 115.457 180.425 115.488C180.35 115.519 180.282 115.565 180.225 115.622C180.168 115.679 180.123 115.747 180.092 115.821C180.061 115.896 180.045 115.976 180.045 116.057C180.045 116.137 180.061 116.216 180.092 116.289C180.123 116.363 180.169 116.429 180.227 116.484C180.284 116.54 180.352 116.583 180.427 116.611C180.502 116.64 180.581 116.653 180.661 116.65Z" fill="black"/>
<path d="M175.89 112.211H207.064C207.227 112.211 207.383 112.146 207.499 112.031C207.614 111.915 207.679 111.759 207.679 111.596C207.679 111.432 207.614 111.276 207.499 111.16C207.383 111.045 207.227 110.98 207.064 110.98H175.89C175.727 110.98 175.57 111.045 175.455 111.16C175.339 111.276 175.274 111.432 175.274 111.596C175.274 111.759 175.339 111.915 175.455 112.031C175.57 112.146 175.727 112.211 175.89 112.211Z" fill="black"/>
<path d="M185.805 121.287H207.064C207.153 121.305 207.245 121.302 207.333 121.279C207.42 121.257 207.502 121.215 207.572 121.157C207.642 121.1 207.698 121.027 207.737 120.945C207.775 120.863 207.795 120.774 207.795 120.683C207.795 120.592 207.775 120.503 207.737 120.421C207.698 120.339 207.642 120.267 207.572 120.209C207.502 120.151 207.42 120.109 207.333 120.087C207.245 120.064 207.153 120.062 207.064 120.079H185.805C185.664 120.106 185.538 120.181 185.447 120.291C185.355 120.401 185.305 120.54 185.305 120.683C185.305 120.826 185.355 120.965 185.447 121.075C185.538 121.185 185.664 121.261 185.805 121.287Z" fill="black"/>
<path d="M136.098 211.241H182.485C182.998 211.241 183.49 211.037 183.853 210.674C184.216 210.311 184.42 209.82 184.42 209.307V194.758C184.422 194.503 184.375 194.25 184.278 194.014C184.182 193.778 184.04 193.564 183.86 193.384C183.68 193.203 183.465 193.061 183.229 192.965C182.993 192.869 182.74 192.821 182.485 192.824H136.12C135.607 192.824 135.116 193.027 134.753 193.39C134.39 193.753 134.186 194.245 134.186 194.758V209.307C134.192 209.814 134.394 210.299 134.751 210.66C135.108 211.021 135.591 211.229 136.098 211.241ZM182.485 194.34C182.903 194.758 182.903 209.307 182.903 209.307C182.485 209.724 136.12 209.724 136.12 209.724C135.703 209.307 135.703 194.758 135.703 194.758C136.098 194.34 182.485 194.34 182.485 194.34Z" fill="black"/>
<path d="M151.84 202.604H178.221C178.378 202.604 178.529 202.541 178.64 202.43C178.752 202.318 178.814 202.168 178.814 202.01C178.814 201.851 178.752 201.697 178.641 201.583C178.531 201.468 178.38 201.401 178.221 201.395H151.84C151.678 201.4 151.524 201.467 151.41 201.581C151.296 201.695 151.229 201.849 151.224 202.01C151.23 202.17 151.297 202.321 151.412 202.431C151.527 202.542 151.68 202.604 151.84 202.604Z" fill="black"/>
<path d="M147.069 198.054H178.265C178.424 198.049 178.575 197.981 178.685 197.867C178.796 197.752 178.858 197.598 178.858 197.439C178.858 197.282 178.796 197.131 178.684 197.019C178.573 196.908 178.422 196.846 178.265 196.846H147.069C146.911 196.846 146.76 196.908 146.649 197.019C146.537 197.131 146.475 197.282 146.475 197.439C146.475 197.598 146.537 197.752 146.648 197.867C146.758 197.981 146.909 198.049 147.069 198.054Z" fill="black"/>
<path d="M156.983 207.219H178.264C178.405 207.192 178.532 207.117 178.623 207.007C178.714 206.896 178.764 206.758 178.764 206.614C178.764 206.471 178.714 206.333 178.623 206.222C178.532 206.112 178.405 206.037 178.264 206.01H156.983C156.843 206.037 156.716 206.112 156.625 206.222C156.534 206.333 156.484 206.471 156.484 206.614C156.484 206.758 156.534 206.896 156.625 207.007C156.716 207.117 156.843 207.192 156.983 207.219Z" fill="black"/>
<path d="M164.898 182.516H211.263C211.518 182.519 211.77 182.471 212.006 182.375C212.242 182.279 212.457 182.137 212.637 181.956C212.818 181.776 212.96 181.562 213.056 181.326C213.152 181.09 213.2 180.837 213.197 180.582V166.033C213.197 165.779 213.147 165.528 213.05 165.293C212.953 165.059 212.81 164.845 212.63 164.666C212.451 164.486 212.238 164.344 212.003 164.247C211.768 164.149 211.517 164.099 211.263 164.099H164.898C164.385 164.099 163.893 164.303 163.53 164.666C163.167 165.028 162.964 165.52 162.964 166.033V180.626C162.966 180.877 163.018 181.125 163.117 181.356C163.216 181.587 163.359 181.796 163.539 181.972C163.719 182.147 163.931 182.286 164.164 182.379C164.397 182.473 164.647 182.519 164.898 182.516ZM211.263 165.616C211.68 166.033 211.68 180.582 211.68 180.582C211.263 181 164.898 181 164.898 181C164.48 180.582 164.48 166.033 164.48 166.033C164.898 165.616 211.219 165.616 211.219 165.616H211.263Z" fill="black"/>
<path d="M180.661 173.791H207.042C207.205 173.791 207.361 173.727 207.477 173.611C207.592 173.496 207.657 173.339 207.657 173.176C207.657 173.096 207.641 173.017 207.61 172.944C207.579 172.87 207.533 172.804 207.476 172.748C207.418 172.693 207.35 172.65 207.276 172.621C207.201 172.593 207.121 172.58 207.042 172.583H180.661C180.581 172.58 180.502 172.593 180.427 172.621C180.352 172.65 180.284 172.693 180.227 172.748C180.169 172.804 180.123 172.87 180.092 172.944C180.061 173.017 180.045 173.096 180.045 173.176C180.045 173.257 180.061 173.337 180.092 173.412C180.123 173.486 180.168 173.554 180.225 173.611C180.282 173.668 180.35 173.714 180.425 173.745C180.5 173.776 180.58 173.791 180.661 173.791Z" fill="black"/>
<path d="M175.89 169.33H207.064C207.153 169.347 207.245 169.344 207.333 169.322C207.42 169.299 207.502 169.258 207.572 169.2C207.642 169.142 207.698 169.07 207.737 168.988C207.775 168.906 207.795 168.816 207.795 168.726C207.795 168.635 207.775 168.545 207.737 168.463C207.698 168.381 207.642 168.309 207.572 168.251C207.502 168.193 207.42 168.152 207.333 168.129C207.245 168.107 207.153 168.104 207.064 168.121H175.89C175.801 168.104 175.71 168.107 175.622 168.129C175.534 168.152 175.452 168.193 175.382 168.251C175.313 168.309 175.256 168.381 175.218 168.463C175.179 168.545 175.159 168.635 175.159 168.726C175.159 168.816 175.179 168.906 175.218 168.988C175.256 169.07 175.313 169.142 175.382 169.2C175.452 169.258 175.534 169.299 175.622 169.322C175.71 169.344 175.801 169.347 175.89 169.33Z" fill="black"/>
<path d="M185.805 178.428H207.064C207.227 178.428 207.383 178.364 207.499 178.248C207.614 178.133 207.679 177.976 207.679 177.813C207.679 177.65 207.614 177.493 207.499 177.378C207.383 177.263 207.227 177.198 207.064 177.198H185.805C185.642 177.198 185.485 177.263 185.37 177.378C185.254 177.493 185.189 177.65 185.189 177.813C185.189 177.976 185.254 178.133 185.37 178.248C185.485 178.364 185.642 178.428 185.805 178.428Z" fill="black"/>
<path d="M48.3814 133.265C48.7332 133.265 54.6912 130.166 54.6912 130.166C54.8451 128.936 48.887 123.573 48.887 123.573C48.7322 123.468 48.5445 123.423 48.3589 123.446C48.1733 123.47 48.0025 123.56 47.8785 123.7C47.7546 123.84 47.6864 124.02 47.6858 124.207C47.6853 124.394 47.7527 124.575 47.8758 124.716L52.9983 129.265L48.0519 131.771C47.8734 131.861 47.7365 132.016 47.6708 132.205C47.6052 132.394 47.6156 132.6 47.6998 132.782C47.7547 132.919 47.8483 133.038 47.9692 133.124C48.0901 133.21 48.2333 133.259 48.3814 133.265Z" fill="black"/>
<g opacity="0.2">
<path d="M282.931 342.072C283.131 342.072 283.324 341.994 283.468 341.854C283.611 341.715 283.695 341.525 283.701 341.325C283.701 340.951 283.7 340.753 282.953 340.621C282.567 340.556 282.173 340.556 281.788 340.621L278.337 340.402C277.128 340.402 276.775 340.731 276.775 341.149C276.775 341.347 276.854 341.537 276.994 341.677C277.134 341.817 277.325 341.896 277.523 341.896L282.931 342.072Z" fill="black"/>
</g>
<path d="M291.703 163.704C293.575 162.716 295.312 161.49 296.869 160.056C296.715 158.825 292.78 156.869 292.78 156.869C292.752 151.661 293.492 146.477 294.979 141.485C295.033 141.289 295.008 141.081 294.909 140.904C294.81 140.727 294.646 140.596 294.451 140.54C294.356 140.513 294.256 140.506 294.158 140.518C294.06 140.53 293.965 140.562 293.879 140.611C293.793 140.66 293.718 140.725 293.658 140.804C293.597 140.882 293.553 140.972 293.528 141.067C291.876 146.304 291.081 151.774 291.175 157.264C292.335 158.134 293.589 158.871 294.912 159.462C293.782 160.448 292.56 161.324 291.263 162.077C291.085 162.167 290.948 162.323 290.883 162.512C290.817 162.7 290.828 162.907 290.912 163.088C290.944 163.271 291.042 163.435 291.189 163.548C291.335 163.662 291.518 163.717 291.703 163.704Z" fill="black"/>
<path d="M300.079 152.188C300.379 152.277 300.702 152.243 300.978 152.095C301.254 151.947 301.46 151.696 301.551 151.396L302.497 148.188C302.544 148.039 302.561 147.883 302.546 147.727C302.532 147.572 302.487 147.421 302.413 147.284C302.339 147.147 302.238 147.026 302.117 146.928C301.995 146.83 301.855 146.758 301.705 146.715C301.405 146.626 301.082 146.659 300.806 146.808C300.53 146.956 300.324 147.207 300.233 147.506L299.287 150.715C299.198 151.015 299.232 151.338 299.38 151.614C299.528 151.89 299.779 152.096 300.079 152.188Z" fill="black"/>
<path d="M281.085 147.177C281.388 147.259 281.711 147.22 281.986 147.068C282.261 146.917 282.466 146.664 282.557 146.364L283.503 143.155C283.511 142.893 283.433 142.636 283.28 142.423C283.127 142.211 282.908 142.055 282.657 141.98C282.406 141.904 282.138 141.914 281.893 142.007C281.648 142.101 281.441 142.272 281.304 142.496L280.381 145.704C280.288 145.993 280.309 146.307 280.439 146.581C280.57 146.854 280.801 147.068 281.085 147.177Z" fill="black"/>
<path d="M311.709 141.067C311.879 141.068 312.045 141.012 312.18 140.909C312.315 140.805 312.412 140.66 312.456 140.496C312.498 140.301 312.464 140.098 312.362 139.927C312.26 139.755 312.098 139.629 311.907 139.573L274.115 129.639C274.555 127.639 275.61 122.452 274.907 120.342C273.5 120.342 269.125 127.331 264.838 135.924C264.745 136.105 264.728 136.315 264.79 136.509C264.852 136.702 264.988 136.864 265.168 136.957C265.353 137.042 265.562 137.053 265.755 136.988C265.947 136.923 266.107 136.786 266.201 136.606C269.081 130.804 272.027 125.617 273.61 123.002C273.408 125.356 273.034 127.692 272.488 129.99C272.462 130.086 272.455 130.185 272.467 130.283C272.479 130.382 272.51 130.476 272.559 130.562C272.608 130.648 272.674 130.723 272.753 130.784C272.831 130.844 272.921 130.888 273.016 130.914L311.532 141.067H311.709Z" fill="black"/>
<path d="M262.068 176.231C262.816 175.923 262.948 175.484 262.75 175.11C253.956 158.825 259.035 152.539 259.079 152.473C259.184 152.319 259.229 152.131 259.205 151.945C259.182 151.76 259.092 151.589 258.952 151.465C258.812 151.341 258.631 151.273 258.444 151.272C258.257 151.272 258.076 151.339 257.936 151.462C257.694 151.748 251.978 158.495 261.409 175.835C261.474 175.953 261.57 176.052 261.686 176.121C261.801 176.191 261.933 176.228 262.068 176.231Z" fill="black"/>
<path d="M262.068 176.231C262.947 175.396 262.75 174.934 262.376 174.78C252.461 170.517 238.875 163.11 239.71 159.946C247.031 132.276 245.822 120.87 245.58 119.288C246.445 116.144 248.074 113.264 250.321 110.902C252.569 108.54 255.366 106.77 258.463 105.749C274.16 99.9474 299.133 107.64 305.882 112.079C306.41 112.387 317.732 119.134 310.983 140.188C310.928 140.38 310.95 140.587 311.044 140.763C311.138 140.939 311.298 141.072 311.488 141.133C311.582 141.164 311.681 141.176 311.78 141.168C311.878 141.16 311.974 141.133 312.062 141.088C312.15 141.043 312.228 140.981 312.292 140.906C312.356 140.831 312.404 140.744 312.434 140.649C319.557 118.342 306.806 110.848 306.674 110.782C299.793 106.255 274.116 98.3432 257.935 104.321C254.591 105.436 251.575 107.363 249.158 109.929C246.741 112.495 244.998 115.619 244.085 119.024C244.085 119.463 245.91 130.628 238.237 159.572C236.765 165.132 257.583 174.363 261.782 176.165C261.872 176.207 261.969 176.23 262.068 176.231Z" fill="black"/>
<path d="M302.937 180.824C303.663 180.538 303.795 180.077 303.597 179.725L303.135 178.846C301.812 176.689 300.757 174.379 299.991 171.967C299.963 171.871 299.917 171.782 299.854 171.704C299.791 171.626 299.714 171.562 299.626 171.515C299.537 171.468 299.441 171.439 299.341 171.43C299.242 171.421 299.141 171.431 299.046 171.462C298.951 171.487 298.862 171.531 298.784 171.592C298.706 171.652 298.642 171.728 298.594 171.815C298.547 171.901 298.518 171.996 298.509 172.094C298.499 172.192 298.51 172.291 298.54 172.385C299.331 174.903 300.423 177.316 301.794 179.571L302.277 180.428C302.339 180.55 302.434 180.651 302.551 180.721C302.667 180.791 302.801 180.827 302.937 180.824Z" fill="black"/>
<path d="M302.937 180.824C303.099 180.827 303.257 180.776 303.388 180.681C303.519 180.586 303.615 180.451 303.663 180.297C303.718 180.104 303.696 179.898 303.602 179.722C303.507 179.545 303.347 179.412 303.157 179.352C300.175 178.374 297.284 177.139 294.517 175.659C294.429 175.613 294.333 175.585 294.234 175.576C294.135 175.567 294.035 175.578 293.94 175.607C293.845 175.637 293.757 175.685 293.68 175.748C293.604 175.812 293.541 175.89 293.495 175.978C293.449 176.066 293.42 176.162 293.411 176.261C293.402 176.36 293.413 176.46 293.442 176.555C293.472 176.65 293.52 176.738 293.584 176.814C293.647 176.891 293.725 176.954 293.813 177C296.667 178.52 299.646 179.792 302.717 180.802L302.937 180.824Z" fill="black"/>
<path d="M275.984 341.94H392.742C403.734 341.94 407.846 333.149 410.44 324.358L415.628 305.941C415.658 305.844 415.668 305.743 415.658 305.642C415.647 305.541 415.616 305.444 415.567 305.355C415.518 305.267 415.451 305.19 415.371 305.128C415.29 305.066 415.199 305.021 415.101 304.996C415.005 304.97 414.906 304.962 414.808 304.974C414.709 304.986 414.614 305.018 414.528 305.067C414.443 305.116 414.368 305.182 414.307 305.26C414.247 305.338 414.202 305.428 414.177 305.524L408.989 323.941C405.471 335.589 400.766 340.336 392.742 340.336H275.984C271.708 340.33 267.607 338.637 264.573 335.624C261.538 332.611 259.817 328.523 259.782 324.248L277.106 262.712C280.645 251.393 285.657 246.317 293.33 246.317H410.088C414.366 246.317 418.471 248.008 421.506 251.022C424.542 254.036 426.261 258.127 426.29 262.404L418.948 288.491C418.892 288.683 418.916 288.89 419.013 289.065C419.11 289.24 419.272 289.37 419.464 289.425C419.657 289.481 419.863 289.457 420.038 289.36C420.214 289.263 420.343 289.101 420.399 288.909L427.785 262.712C427.809 260.381 427.372 258.068 426.5 255.906C425.628 253.744 424.339 251.775 422.706 250.111C421.072 248.448 419.127 247.122 416.981 246.211C414.834 245.3 412.53 244.82 410.198 244.8H293.44C282.448 244.8 278.051 254.778 275.852 262.382L258.507 323.919C258.466 326.25 258.887 328.567 259.744 330.736C260.601 332.905 261.878 334.884 263.502 336.558C265.126 338.232 267.064 339.57 269.206 340.493C271.348 341.417 273.652 341.909 275.984 341.94Z" fill="black"/>
<path d="M281.282 341.94C281.481 341.94 281.671 341.861 281.811 341.721C281.951 341.581 282.03 341.391 282.03 341.193C282.03 340.992 281.952 340.8 281.813 340.656C281.673 340.513 281.483 340.429 281.282 340.424C277.085 340.495 273.029 338.907 269.995 336.006C266.961 333.105 265.196 329.125 265.08 324.929L282.404 265.591C285.943 254.602 290.956 249.767 298.628 249.767H420.047C420.247 249.767 420.44 249.689 420.583 249.549C420.727 249.41 420.81 249.22 420.816 249.02C420.816 248.816 420.735 248.62 420.591 248.476C420.446 248.332 420.251 248.251 420.047 248.251H298.628C287.636 248.251 283.239 257.899 281.041 265.151L263.673 324.622C263.69 326.915 264.16 329.183 265.055 331.295C265.949 333.407 267.251 335.322 268.887 336.93C270.522 338.539 272.459 339.809 274.586 340.669C276.713 341.528 278.988 341.96 281.282 341.94Z" fill="black"/>
<path d="M203.656 341.94H274.973C275.173 341.94 275.366 341.862 275.509 341.722C275.653 341.583 275.736 341.393 275.742 341.193C275.742 340.989 275.661 340.793 275.517 340.649C275.372 340.505 275.177 340.424 274.973 340.424H203.656C202.808 340.355 202.017 339.97 201.44 339.345C200.863 338.72 200.543 337.9 200.543 337.05C200.543 336.2 200.863 335.38 201.44 334.755C202.017 334.13 202.808 333.745 203.656 333.677H261.452C261.651 333.677 261.841 333.598 261.981 333.458C262.121 333.318 262.2 333.127 262.2 332.929C262.2 332.731 262.121 332.541 261.981 332.401C261.841 332.261 261.651 332.182 261.452 332.182H203.656C202.361 332.182 201.121 332.696 200.205 333.611C199.29 334.526 198.775 335.767 198.775 337.061C198.775 338.355 199.29 339.596 200.205 340.511C201.121 341.426 202.361 341.94 203.656 341.94Z" fill="black"/>
<path d="M256.726 333.677C257.32 333.677 257.562 333.149 257.452 332.753C257.342 332.358 254.132 319.413 247.778 317.765C239.596 316.057 231.189 315.701 222.892 316.71C221.057 317.131 219.344 317.966 217.88 319.15C216.413 320.264 215.437 321.905 215.158 323.726C214.879 325.547 215.319 327.405 216.385 328.907C217.289 330.127 217.891 331.543 218.144 333.039C218.173 333.237 218.28 333.416 218.441 333.535C218.601 333.655 218.803 333.706 219.001 333.677C219.2 333.647 219.378 333.541 219.497 333.38C219.617 333.219 219.668 333.018 219.639 332.819C219.354 331.074 218.653 329.423 217.594 328.006C216.767 326.823 216.431 325.365 216.656 323.939C216.882 322.513 217.652 321.229 218.803 320.358C220.084 319.303 221.587 318.552 223.2 318.161C231.264 317.203 239.43 317.552 247.383 319.193C252.879 320.622 255.957 332.951 256 333.061C256.022 333.236 256.109 333.396 256.244 333.51C256.378 333.624 256.55 333.683 256.726 333.677Z" fill="black"/>
<path d="M278.666 155.023C280.787 155.018 282.859 154.386 284.621 153.205C286.382 152.023 287.754 150.347 288.562 148.387C289.371 146.427 289.58 144.271 289.163 142.192C288.747 140.113 287.724 138.204 286.223 136.706C284.721 135.209 282.81 134.189 280.729 133.777C278.649 133.365 276.492 133.579 274.533 134.391C272.574 135.204 270.9 136.578 269.722 138.342C268.544 140.105 267.916 142.178 267.916 144.298C267.91 145.71 268.184 147.109 268.723 148.414C269.261 149.719 270.053 150.905 271.053 151.902C272.052 152.9 273.24 153.689 274.547 154.225C275.854 154.76 277.254 155.031 278.666 155.023ZM278.666 135.089C280.799 135.105 282.861 135.858 284.502 137.221C286.142 138.585 287.26 140.474 287.665 142.568C288.07 144.662 287.738 146.831 286.723 148.707C285.709 150.584 284.076 152.051 282.102 152.86C280.128 153.669 277.935 153.77 275.896 153.145C273.856 152.521 272.095 151.209 270.913 149.434C269.731 147.658 269.201 145.529 269.412 143.406C269.623 141.284 270.562 139.301 272.071 137.793C272.934 136.93 273.958 136.247 275.087 135.783C276.215 135.319 277.424 135.084 278.644 135.089H278.666Z" fill="black"/>
<path d="M303.245 160.429C305.372 160.429 307.451 159.798 309.219 158.616C310.988 157.434 312.366 155.755 313.179 153.79C313.992 151.825 314.204 149.663 313.787 147.577C313.37 145.492 312.344 143.577 310.839 142.075C309.333 140.573 307.416 139.551 305.329 139.139C303.242 138.727 301.08 138.943 299.116 139.76C297.152 140.576 295.474 141.957 294.295 143.728C293.117 145.498 292.49 147.578 292.495 149.704C292.506 152.549 293.643 155.273 295.657 157.283C297.672 159.292 300.399 160.423 303.245 160.429ZM303.245 140.474C305.072 140.469 306.859 141.007 308.381 142.019C309.902 143.03 311.089 144.47 311.791 146.157C312.493 147.843 312.679 149.699 312.325 151.491C311.972 153.283 311.094 154.93 309.803 156.223C308.513 157.516 306.868 158.398 305.076 158.756C303.285 159.113 301.427 158.932 299.738 158.234C298.05 157.536 296.606 156.353 295.591 154.834C294.575 153.316 294.033 151.531 294.033 149.704C294.033 147.264 295 144.922 296.722 143.193C298.444 141.463 300.781 140.485 303.223 140.474H303.245Z" fill="black"/>
<path d="M293.307 148.232C293.419 148.228 293.529 148.199 293.628 148.149C293.728 148.098 293.815 148.026 293.884 147.938C293.953 147.85 294.003 147.749 294.028 147.64C294.054 147.531 294.056 147.418 294.033 147.309C293.922 146.884 293.725 146.487 293.452 146.142C293.18 145.798 292.838 145.514 292.45 145.309C291.793 145.033 291.081 144.91 290.369 144.948C289.658 144.986 288.963 145.184 288.339 145.529C288.248 145.567 288.165 145.623 288.095 145.694C288.026 145.764 287.971 145.848 287.934 145.94C287.897 146.032 287.879 146.131 287.881 146.23C287.882 146.329 287.904 146.427 287.943 146.517C287.979 146.611 288.034 146.696 288.104 146.767C288.175 146.839 288.258 146.894 288.351 146.932C288.444 146.969 288.544 146.986 288.644 146.983C288.744 146.98 288.842 146.956 288.933 146.913C289.357 146.674 289.827 146.528 290.312 146.482C290.797 146.437 291.285 146.494 291.747 146.649C291.943 146.75 292.117 146.889 292.257 147.059C292.397 147.229 292.5 147.427 292.56 147.638C292.6 147.807 292.695 147.957 292.831 148.065C292.967 148.173 293.134 148.231 293.307 148.232Z" fill="black"/>
<path d="M199.523 338.27C199.713 338.271 199.896 338.202 200.038 338.076C200.18 337.951 200.271 337.777 200.293 337.588C200.305 337.385 200.239 337.186 200.108 337.03C199.977 336.875 199.791 336.775 199.589 336.753C188.854 336.145 178.767 331.422 171.427 323.567C155.203 306.622 154.39 278.25 162.963 260.624C202.535 179.308 252.879 183.703 253.362 183.703C253.533 183.726 253.706 183.688 253.851 183.596C253.996 183.503 254.103 183.362 254.154 183.198L257.649 173.703C257.713 173.514 257.701 173.307 257.615 173.126C257.528 172.946 257.375 172.806 257.187 172.736C257.095 172.701 256.997 172.685 256.898 172.688C256.799 172.691 256.702 172.714 256.612 172.754C256.522 172.795 256.441 172.854 256.374 172.926C256.306 172.998 256.254 173.083 256.22 173.176L252.945 182.143C247.097 181.923 199.281 182.341 161.6 259.921C152.806 278.03 153.664 307.15 170.394 324.556C178.036 332.625 188.451 337.502 199.545 338.204L199.523 338.27Z" fill="black"/>
<path d="M318.018 246.558C318.121 246.559 318.224 246.537 318.32 246.496C318.415 246.454 318.501 246.393 318.571 246.317C318.641 246.24 318.695 246.15 318.728 246.051C318.762 245.953 318.774 245.849 318.765 245.745C317.855 236.406 315.764 227.219 312.543 218.405C312.512 218.311 312.462 218.224 312.395 218.15C312.328 218.076 312.247 218.016 312.156 217.975C312.065 217.934 311.967 217.911 311.867 217.91C311.768 217.908 311.668 217.927 311.576 217.966C311.484 218 311.399 218.052 311.326 218.119C311.254 218.187 311.196 218.268 311.155 218.358C311.114 218.447 311.091 218.545 311.088 218.643C311.085 218.742 311.102 218.84 311.137 218.933C314.291 227.617 316.352 236.661 317.27 245.855C317.282 246.045 317.365 246.224 317.504 246.355C317.643 246.486 317.827 246.559 318.018 246.558Z" fill="black"/>
<path d="M251.934 322.688C252.115 322.69 252.29 322.626 252.427 322.509C252.565 322.392 252.655 322.229 252.681 322.05C254.88 308.864 243.338 303.677 229.972 297.744C222.365 294.337 214.583 290.843 208.163 285.458C205.94 283.685 204.126 281.454 202.844 278.917C201.562 276.38 200.842 273.596 200.733 270.755C199.985 254.382 217.419 236.405 217.594 236.229C217.735 236.085 217.814 235.892 217.814 235.691C217.814 235.489 217.735 235.296 217.594 235.152C217.448 235.016 217.256 234.941 217.056 234.941C216.856 234.941 216.664 235.016 216.517 235.152C215.77 235.921 198.446 253.811 199.216 270.843C199.337 273.886 200.11 276.868 201.483 279.586C202.856 282.305 204.797 284.697 207.174 286.601C213.659 292.139 221.64 295.678 229.356 299.106C242.129 304.798 253.165 309.699 251.186 321.809C251.16 322.009 251.212 322.211 251.33 322.375C251.449 322.538 251.626 322.65 251.824 322.688H251.934Z" fill="black"/>
<path d="M221.75 295.656C222.321 295.546 222.585 295.15 222.475 294.732L211.021 243.767C210.961 243.586 210.837 243.434 210.671 243.34C210.506 243.246 210.311 243.216 210.125 243.257C209.939 243.298 209.775 243.407 209.664 243.562C209.554 243.717 209.504 243.908 209.526 244.097L221.002 295.062C221.042 295.231 221.137 295.381 221.273 295.489C221.408 295.596 221.576 295.655 221.75 295.656Z" fill="black"/>
<path d="M224.256 333.677C224.456 333.677 224.648 333.599 224.792 333.459C224.935 333.32 225.02 333.129 225.025 332.929V327.874C225.851 329.232 226.445 330.717 226.784 332.27C226.799 332.368 226.835 332.462 226.888 332.546C226.942 332.63 227.012 332.702 227.094 332.758C227.177 332.813 227.27 332.851 227.368 332.87C227.466 332.888 227.566 332.886 227.663 332.863C227.762 332.845 227.857 332.807 227.941 332.751C228.025 332.696 228.097 332.624 228.152 332.539C228.208 332.455 228.245 332.361 228.263 332.261C228.281 332.162 228.279 332.06 228.257 331.962C228.147 331.413 227.069 326.468 224.541 325.369C223.508 326.05 223.508 332.797 223.508 332.797C223.488 332.906 223.494 333.018 223.522 333.124C223.551 333.23 223.603 333.329 223.674 333.413C223.746 333.497 223.835 333.564 223.936 333.61C224.036 333.655 224.145 333.678 224.256 333.677Z" fill="black"/>
<path d="M350.444 303.238C352.504 303.097 354.466 302.306 356.046 300.979C357.627 299.652 358.744 297.857 359.238 295.853C360.777 290.623 358.403 285.304 353.918 283.986C353.248 283.784 352.552 283.68 351.852 283.678C349.792 283.818 347.831 284.609 346.25 285.936C344.669 287.264 343.552 289.059 343.058 291.062C341.519 296.293 343.893 301.633 348.378 302.952C349.049 303.147 349.745 303.243 350.444 303.238ZM351.896 285.194C352.454 285.198 353.009 285.279 353.545 285.436C357.216 286.513 359.128 290.996 357.809 295.436C357.411 297.131 356.482 298.655 355.157 299.785C353.833 300.916 352.182 301.594 350.444 301.721C349.885 301.729 349.329 301.647 348.796 301.48C345.124 300.403 343.212 295.919 344.399 291.502C344.806 289.786 345.755 288.246 347.105 287.11C348.455 285.974 350.135 285.302 351.896 285.194Z" fill="black"/>
<path d="M279.414 169.901C279.612 169.901 287.372 167.835 287.372 167.835C287.54 167.763 287.677 167.633 287.758 167.469C287.839 167.305 287.858 167.117 287.813 166.94C287.768 166.763 287.661 166.607 287.512 166.501C287.362 166.395 287.18 166.346 286.998 166.363L279.897 168.253L277.105 160.253C277.072 160.159 277.021 160.073 276.954 159.999C276.887 159.925 276.807 159.865 276.717 159.822C276.627 159.779 276.53 159.755 276.431 159.749C276.331 159.744 276.232 159.759 276.138 159.792C276.044 159.825 275.958 159.876 275.884 159.943C275.81 160.009 275.749 160.09 275.707 160.18C275.664 160.269 275.639 160.367 275.634 160.466C275.629 160.566 275.643 160.665 275.676 160.759L278.71 169.396C278.76 169.543 278.855 169.67 278.981 169.761C279.107 169.851 279.259 169.9 279.414 169.901Z" fill="black"/>
<path d="M285.965 178.846C299.156 178.846 302.761 167.572 304.124 163.462L304.454 162.495C305.751 158.979 310.411 140.935 310.609 140.188C310.662 139.996 310.636 139.79 310.537 139.617C310.438 139.444 310.274 139.317 310.082 139.265C309.889 139.213 309.684 139.239 309.511 139.338C309.337 139.436 309.211 139.6 309.158 139.792C308.961 140.562 304.3 158.517 303.025 161.968L302.695 162.979C301.024 168.055 296.605 181.549 277.831 176.055C277.636 176.001 277.427 176.026 277.25 176.125C277.073 176.223 276.942 176.388 276.885 176.582C276.831 176.778 276.856 176.987 276.955 177.164C277.054 177.341 277.218 177.471 277.413 177.528C280.188 178.364 283.067 178.807 285.965 178.846Z" fill="black"/>
<path d="M355.633 245.789C356.38 245.481 356.512 245.02 356.293 244.646C324.591 190.912 287.284 186.978 280.887 186.692L282.645 178.297C282.659 178.11 282.605 177.925 282.492 177.776C282.38 177.627 282.216 177.523 282.033 177.486C281.85 177.448 281.659 177.478 281.497 177.571C281.334 177.663 281.211 177.812 281.15 177.989L279.216 187.219C280.447 188.099 320.854 187.505 354.995 245.35C355.051 245.474 355.141 245.581 355.253 245.658C355.365 245.736 355.497 245.781 355.633 245.789Z" fill="black"/>
<path d="M259.298 152.407C259.495 152.408 259.684 152.333 259.827 152.198C259.97 152.063 260.056 151.878 260.068 151.682C260.074 151.582 260.059 151.482 260.026 151.388C259.992 151.293 259.94 151.207 259.872 151.133C259.805 151.059 259.723 151 259.632 150.958C259.541 150.916 259.442 150.894 259.342 150.891C258.103 150.947 256.87 150.697 255.751 150.165C254.631 149.632 253.66 148.832 252.923 147.836C252.208 146.551 251.787 145.125 251.688 143.658C251.589 142.192 251.816 140.722 252.351 139.353C253.055 137.507 255.78 131.617 261.408 133.639C262.426 134.136 263.281 134.912 263.873 135.878C264.465 136.843 264.769 137.957 264.75 139.089C264.75 139.289 264.828 139.482 264.968 139.625C265.108 139.769 265.297 139.853 265.498 139.858C265.698 139.858 265.89 139.78 266.034 139.641C266.178 139.501 266.262 139.311 266.267 139.111C266.267 138.891 266.267 133.771 261.87 132.21C256.396 130.276 252.593 134.408 250.878 138.803C250.249 140.393 249.987 142.104 250.113 143.809C250.239 145.514 250.748 147.169 251.603 148.649C252.454 149.862 253.597 150.841 254.927 151.494C256.257 152.147 257.73 152.454 259.21 152.385L259.298 152.407Z" fill="black"/>
<path d="M255.517 146.452L262.112 145.704C262.75 144.671 259.364 135.946 259.364 135.946C259.294 135.76 259.153 135.609 258.972 135.526C258.79 135.444 258.584 135.437 258.397 135.507C258.21 135.577 258.059 135.718 257.977 135.899C257.894 136.081 257.887 136.287 257.957 136.474L260.969 144.298L255.385 144.935C255.206 144.966 255.044 145.059 254.927 145.197C254.809 145.336 254.745 145.512 254.745 145.693C254.745 145.875 254.809 146.051 254.927 146.189C255.044 146.328 255.206 146.421 255.385 146.452H255.517Z" fill="black"/>
<path d="M267.586 201.615C279.062 201.615 280.777 187.659 280.777 187.527C280.789 187.429 280.782 187.329 280.755 187.234C280.729 187.138 280.683 187.049 280.622 186.972C280.56 186.894 280.485 186.829 280.398 186.781C280.311 186.733 280.216 186.703 280.117 186.692C280.019 186.677 279.918 186.682 279.821 186.707C279.724 186.732 279.634 186.777 279.556 186.839C279.477 186.901 279.412 186.979 279.365 187.067C279.318 187.155 279.29 187.252 279.282 187.351C279.282 187.879 277.765 200.098 267.652 200.098C257.034 199.922 254.286 183.066 254.264 182.89C254.222 182.698 254.112 182.528 253.955 182.411C253.797 182.294 253.602 182.237 253.407 182.253C253.206 182.285 253.026 182.396 252.906 182.56C252.787 182.725 252.737 182.931 252.769 183.132C252.769 183.879 255.737 201.417 267.389 201.615H267.586Z" fill="black"/>
<path d="M5.5344 341.94H61.3961C61.6002 341.94 61.796 341.859 61.9403 341.715C62.0846 341.57 62.1658 341.375 62.1658 341.171C62.16 340.971 62.0765 340.781 61.9328 340.641C61.7891 340.501 61.5964 340.424 61.3961 340.424H5.5344C5.33409 340.424 5.14137 340.501 4.99768 340.641C4.854 340.781 4.77047 340.971 4.76474 341.171C4.76474 341.375 4.84587 341.57 4.99017 341.715C5.13447 341.859 5.33034 341.94 5.5344 341.94Z" fill="black"/>
<path d="M114.049 341.94H203.458C203.662 341.94 203.858 341.859 204.003 341.715C204.147 341.57 204.228 341.375 204.228 341.171C204.222 340.971 204.138 340.781 203.995 340.641C203.851 340.501 203.659 340.424 203.458 340.424H114.049C113.951 340.424 113.853 340.443 113.763 340.48C113.672 340.518 113.59 340.573 113.52 340.642C113.451 340.712 113.396 340.794 113.358 340.885C113.32 340.975 113.301 341.073 113.301 341.171C113.301 341.371 113.379 341.563 113.519 341.707C113.658 341.851 113.849 341.934 114.049 341.94Z" fill="black"/>
</g>
<defs>
<clipPath id="clip0_6_6234">
<rect width="429" height="353" fill="white" transform="matrix(-1 0 0 1 429.5 0.5)"/>
</clipPath>
</defs>
</svg>
