<svg width="100" height="28" viewBox="0 0 100 28" fill="none" xmlns="http://www.w3.org/2000/svg">
<path d="M61.3597 10.2814C61.3597 16.7786 57.1785 18.7871 53.327 18.7871H47.2317V2.24866H52.6187C57.2496 2.24866 61.3597 4.46915 61.3597 10.2814ZM50.8467 5.20194V15.8338H53.327C55.4065 15.8338 57.6503 14.8179 57.6503 10.3058C57.6503 7.23487 56.2803 5.20311 52.7363 5.20311H50.8467V5.20194Z" fill="#39B54A"/>
<path d="M11.7213 5.22524H4.30373V8.91015H11.225V11.7924H4.30373V15.8093H11.9345V18.7859H0.688721V2.24866H11.7213V5.22524Z" fill="black"/>
<path d="M24.196 18.7852H20.8408V17.2964C19.9192 18.5243 18.6436 19.1149 17.1314 19.1149C14.7222 19.1149 12.9502 17.7449 12.9502 14.7438V6.24048H16.3998V13.9423C16.3998 15.5489 16.9671 16.1628 18.2428 16.1628C19.7072 16.1628 20.7476 15.0293 20.7476 13.3039V6.24048H24.1971V18.7852H24.196Z" fill="black"/>
<path d="M33.2212 5.95926V9.31448C32.7959 9.29118 32.6305 9.29118 32.4651 9.29118C30.5277 9.29118 29.0155 10.1649 29.0155 13.5912V18.7883H25.5659V6.24236H28.8967V8.27413C29.7704 6.59652 30.9762 5.9115 32.3218 5.9115C32.6293 5.9115 32.9357 5.9348 33.22 5.95926" fill="black"/>
<path d="M46.3568 12.5031C46.3568 16.449 43.8765 19.118 39.7885 19.118C35.7005 19.118 33.2446 16.3534 33.2446 12.5031C33.2446 8.65275 35.7249 5.9115 39.7885 5.9115C43.852 5.9115 46.3568 8.74712 46.3568 12.5031ZM36.8596 12.4553C36.8596 15.03 37.9466 16.3767 39.7896 16.3767C41.6327 16.3767 42.7429 15.03 42.7429 12.4553C42.7429 9.88067 41.5616 8.65159 39.7896 8.65159C38.0177 8.65159 36.8596 9.88067 36.8596 12.4553Z" fill="black"/>
<path d="M70.195 5.95926V9.31448C69.7698 9.29118 69.6044 9.29118 69.4389 9.29118C67.5015 9.29118 65.9894 10.1649 65.9894 13.5912V18.7883H62.5398V6.24236H65.8705V8.27413C66.7443 6.59652 67.9501 5.9115 69.2968 5.9115C69.6044 5.9115 69.9108 5.9348 70.195 5.95926Z" fill="#39B54A"/>
<path d="M75.3455 2.4374C75.3455 3.52435 74.4007 4.3981 73.3137 4.3981C72.2268 4.3981 71.282 3.52435 71.282 2.4374C71.282 1.35045 72.2268 0.5 73.3137 0.5C74.4007 0.5 75.3455 1.35045 75.3455 2.4374Z" fill="black"/>
<path d="M75.0377 6.24048H71.5881V18.7852H75.0377V6.24048Z" fill="#39B54A"/>
<path d="M84.4407 18.7852H80.2117L76.1016 6.24048H79.9286L82.3378 15.9508L84.8659 6.24048H88.552L84.4407 18.7852Z" fill="#39B54A"/>
<path d="M97.0438 15.2684C95.8415 16.2446 94.433 16.1969 93.0094 14.927L99.1909 8.74551L98.7237 8.27835C95.8671 5.42176 92.3418 5.10371 89.653 7.79371C86.8465 10.6002 87.1972 14.1255 89.9198 16.8481C92.5481 19.4764 96.1328 19.8061 98.9451 17.1697L97.0438 15.2684ZM91.4063 9.58082C92.4758 8.51135 93.7457 8.44494 95.1483 9.68101L91.4564 13.3729C90.253 11.9691 90.3707 10.6165 91.4063 9.58082Z" fill="#39B54A"/>
<path d="M0 25.9922V22.1209C0.14912 22.0883 0.376296 22.058 0.682692 22.0312C0.989088 22.0033 1.2815 21.9905 1.55878 21.9905C2.12497 21.9905 2.53155 22.0825 2.7797 22.2654C3.02668 22.4483 3.15134 22.743 3.15134 23.1485V25.9934H0V25.9922ZM2.21584 25.2804V23.1473C2.21584 22.9621 2.14361 22.8409 1.99915 22.7838C1.87333 22.7326 1.68693 22.7069 1.43994 22.7069C1.29898 22.7069 1.13122 22.7139 0.935498 22.7279V25.2793H2.21584V25.2804ZM8.23541 25.9922H7.30341V22.0499H8.23541V25.9922ZM12.3642 24.6595V22.0499H13.2962V23.8708L12.6764 24.6595H12.3642ZM17.4564 23.4886C17.4646 23.3954 17.4681 23.3022 17.4681 23.2102C17.4681 22.8456 17.3935 22.4576 17.2456 22.0464H18.1379C18.1682 22.1256 18.1985 22.2188 18.23 22.3248L18.3127 22.6522H18.3709C18.3791 22.6335 18.3908 22.6102 18.4071 22.5799C18.4234 22.5508 18.4641 22.4972 18.5306 22.4215C18.597 22.3446 18.6704 22.2782 18.7519 22.22C18.8335 22.1617 18.9453 22.1093 19.0863 22.0615C19.2284 22.0138 19.3868 21.9893 19.5627 21.9893C19.7387 21.9893 19.8994 22.0231 20.0439 22.0906C20.1884 22.1582 20.3049 22.2468 20.3934 22.3563C20.4819 22.4658 20.5553 22.5997 20.6124 22.757C20.7126 23.032 20.7627 23.3675 20.7627 23.7624V25.9934H19.0758V25.2816H19.8097V23.8696C19.8097 23.5073 19.7759 23.251 19.7084 23.103C19.6781 23.0355 19.6396 22.9726 19.5919 22.9131C19.4987 22.7908 19.3496 22.7302 19.1457 22.7302C19.0525 22.7302 18.9604 22.7524 18.8719 22.7955C18.7834 22.8397 18.71 22.8933 18.6505 22.9562C18.5306 23.0844 18.4467 23.1986 18.4001 23.2988L18.3698 23.3663L18.1379 25.9946H17.2269L17.4564 23.4921V23.4886ZM24.8752 24.6595V22.0499H25.8072V23.8708L25.1874 24.6595H24.8752ZM29.5573 22.0522C29.9383 22.0091 30.2761 21.9881 30.5709 21.9881C30.8656 21.9881 31.0974 22.0021 31.2687 22.0312C31.44 22.0604 31.5833 22.1035 31.6998 22.1629C31.8163 22.2223 31.9106 22.2899 31.9852 22.3656C32.0597 22.4425 32.1168 22.5368 32.1576 22.651C32.1984 22.7652 32.2263 22.8805 32.2403 22.9982C32.2543 23.1158 32.2613 23.2545 32.2613 23.4153V25.9911H31.3258V23.4118C31.3258 22.9411 31.0672 22.7058 30.5499 22.7058C30.2889 22.7058 29.9581 22.7267 29.5573 22.7698V22.0522ZM36.8234 24.5127C36.4099 24.3228 36.2037 23.9477 36.2037 23.385C36.2037 23.1753 36.2374 22.9877 36.3062 22.8223C36.3749 22.6568 36.4635 22.524 36.5718 22.4215C36.6813 22.3201 36.8083 22.2351 36.9551 22.1675C37.2195 22.0475 37.5224 21.987 37.8626 21.987C38.0281 21.987 38.1818 22.0021 38.3251 22.0324C38.4684 22.0627 38.6164 22.1233 38.7667 22.2141C38.917 22.305 39.0463 22.4227 39.1535 22.5671C39.2606 22.7116 39.348 22.9073 39.4167 23.1555C39.4855 23.4024 39.5193 23.6669 39.5193 23.9488C39.5193 24.2308 39.5041 24.4684 39.4738 24.6618C39.4435 24.8564 39.4004 25.023 39.3468 25.1616C39.2933 25.3002 39.2245 25.4226 39.1441 25.5286C39.0626 25.6346 38.9764 25.7196 38.8843 25.7849C38.7923 25.8501 38.6898 25.9025 38.5756 25.9433C38.3741 26.0144 38.1387 26.0505 37.8708 26.0505C37.6028 26.0505 37.35 26.0435 37.1124 26.0295C36.8747 26.0155 36.7023 26.0004 36.5939 25.9864L36.4355 25.9654V25.2804C36.9038 25.3165 37.3803 25.3352 37.8626 25.3352C38.0397 25.3352 38.1853 25.2839 38.2995 25.1826C38.3845 25.1057 38.4533 24.974 38.5045 24.7888C38.5395 24.663 38.5581 24.5278 38.5628 24.3857C38.5663 24.2436 38.5686 24.1201 38.5686 24.0164C38.5686 23.9127 38.5686 23.8253 38.5651 23.7554C38.5628 23.6855 38.557 23.6005 38.5465 23.5015C38.536 23.4024 38.522 23.3209 38.5034 23.2556C38.4847 23.1904 38.4591 23.1217 38.4242 23.0494C38.3892 22.9772 38.3473 22.9201 38.2983 22.8793C38.1818 22.7792 38.0362 22.7291 37.8615 22.7291C37.7333 22.7291 37.6215 22.7477 37.5271 22.7861C37.4327 22.8234 37.3617 22.8677 37.3162 22.9155C37.2708 22.9644 37.2335 23.0215 37.2044 23.0867C37.1683 23.1788 37.1496 23.2708 37.1496 23.3628C37.1496 23.4549 37.1695 23.5422 37.2091 23.6238C37.2487 23.7053 37.2976 23.7682 37.357 23.8137C37.4689 23.8987 37.5714 23.9512 37.6657 23.9698L37.7822 23.9908L37.6261 24.6874L37.4642 24.6665C37.1811 24.6303 36.9667 24.5779 36.8223 24.5104L36.8234 24.5127ZM44.1397 22.0499H46.2145V22.6545L45.6798 24.5278L45.3501 25.9911H44.4426L44.7723 24.5278L45.2767 22.7617H43.2077V21.2367H44.1397V22.0499ZM54.8985 25.9922V22.1209C55.0476 22.0883 55.2748 22.058 55.5812 22.0312C55.8876 22.0033 56.18 21.9905 56.4573 21.9905C57.0234 21.9905 57.43 22.0825 57.6782 22.2654C57.9252 22.4483 58.0498 22.743 58.0498 23.1485V25.9934H54.8996L54.8985 25.9922ZM57.1143 25.2804V23.1473C57.1143 22.9621 57.0421 22.8409 56.8976 22.7838C56.7718 22.7326 56.5854 22.7069 56.3384 22.7069C56.1975 22.7069 56.0297 22.7139 55.834 22.7279V25.2793H57.1143V25.2804ZM62.1623 24.6606V22.051H63.0943V23.8719L62.4745 24.6606H62.1623ZM67.2545 23.4898C67.2627 23.3966 67.2662 23.3034 67.2662 23.2114C67.2662 22.8467 67.1916 22.4588 67.0436 22.0475H67.936C67.9663 22.1268 67.9966 22.22 68.0281 22.326L68.1108 22.6533H68.169C68.1772 22.6347 68.1888 22.6114 68.2052 22.5811C68.2215 22.552 68.2622 22.4984 68.3286 22.4227C68.3951 22.3458 68.4684 22.2794 68.55 22.2211C68.6315 22.1629 68.7434 22.1104 68.8844 22.0627C69.0265 22.0149 69.1849 21.9905 69.3608 21.9905C69.5368 21.9905 69.6975 22.0242 69.842 22.0918C69.9864 22.1594 70.1029 22.2479 70.1915 22.3574C70.28 22.4669 70.3534 22.6009 70.4105 22.7582C70.5107 23.0331 70.5608 23.3687 70.5608 23.7636V25.9946H68.8739V25.2828H69.6078V23.8708C69.6078 23.5085 69.574 23.2522 69.5065 23.1042C69.4762 23.0366 69.4377 22.9737 69.39 22.9143C69.2968 22.792 69.1476 22.7314 68.9438 22.7314C68.8506 22.7314 68.7585 22.7535 68.67 22.7966C68.5815 22.8409 68.5081 22.8945 68.4486 22.9574C68.3286 23.0856 68.2448 23.1997 68.1982 23.2999L68.1679 23.3675L67.936 25.9957H67.025L67.2545 23.4933V23.4898ZM77.5054 22.051V22.7267C77.4203 22.7594 77.3306 22.8071 77.2363 22.87C77.1349 22.9458 77.0638 23.0355 77.0254 23.1391C76.987 23.2428 76.9671 23.3791 76.9671 23.5457V25.9934H76.0351V23.5248C76.0351 23.4129 76.0515 23.3104 76.0829 23.2195C76.1144 23.1275 76.1528 23.0564 76.1971 23.0052C76.2891 22.8992 76.3718 22.8316 76.4476 22.8036L76.4965 22.785V22.764H74.354V22.0522H77.5042L77.5054 22.051ZM83.9921 24.4137C83.7801 24.988 83.6741 25.4796 83.6741 25.8897V25.9934H82.7479V25.8897C82.7479 25.7243 82.7747 25.4971 82.8271 25.207C82.8795 24.9169 82.9448 24.6641 83.0228 24.4509L83.6345 22.764H81.3278V22.0522H84.6562V22.6149L83.9933 24.4148L83.9921 24.4137ZM82.1957 27.4998H81.3313V23.6343H82.1957V27.4998ZM89.5154 25.8222C89.428 25.8932 89.3139 25.9503 89.1752 25.9922C89.0354 26.0342 88.8805 26.0552 88.7092 26.0552C88.538 26.0552 88.3854 26.0272 88.2514 25.9724V25.2629C88.3877 25.2991 88.4949 25.3177 88.5718 25.3177C88.6486 25.3177 88.7127 25.3037 88.7628 25.2746C88.8129 25.2466 88.8502 25.2059 88.8747 25.1558C88.9154 25.0637 88.9352 24.9542 88.9352 24.8261V22.785L88.4925 22.8281V22.1221C89.1181 22.0347 89.7402 21.9905 90.36 21.9905C90.8179 21.9905 91.1616 22.0487 91.3899 22.1652C91.5064 22.2246 91.6008 22.2922 91.6753 22.3679C91.7499 22.4448 91.807 22.5392 91.8477 22.6533C91.8885 22.7675 91.9165 22.8828 91.9305 23.0005C91.9444 23.1182 91.9514 23.2568 91.9514 23.4176V25.9934H91.0136V23.4141C91.0136 22.9434 90.7561 22.7081 90.24 22.7081C90.1259 22.7081 90.0012 22.7116 89.8672 22.7174V24.8261C89.8672 25.2991 89.7496 25.6311 89.5154 25.8222ZM96.1559 23.491C96.1641 23.3978 96.1676 23.3046 96.1676 23.2125C96.1676 22.8479 96.093 22.4599 95.9451 22.0487H96.8375C96.8677 22.1279 96.898 22.2211 96.9295 22.3271L97.0122 22.6545H97.0705C97.0786 22.6359 97.0903 22.6126 97.1066 22.5823C97.1229 22.5531 97.1637 22.4996 97.2301 22.4238C97.2965 22.3469 97.3699 22.2805 97.4514 22.2223C97.533 22.164 97.6448 22.1116 97.7858 22.0638C97.9279 22.0161 98.0863 21.9916 98.2623 21.9916C98.4382 21.9916 98.5989 22.0254 98.7434 22.093C98.8879 22.1605 99.0044 22.2491 99.0929 22.3586C99.1814 22.4681 99.2548 22.6021 99.3119 22.7594C99.4121 23.0343 99.4622 23.3698 99.4622 23.7648V25.9957H97.7753V25.2839H98.5092V23.8719C98.5092 23.5096 98.4755 23.2533 98.4079 23.1054C98.3776 23.0378 98.3391 22.9749 98.2914 22.9155C98.1982 22.7931 98.0491 22.7326 97.8452 22.7326C97.752 22.7326 97.66 22.7547 97.5714 22.7978C97.4829 22.8421 97.4095 22.8957 97.3501 22.9586C97.2301 23.0867 97.1462 23.2009 97.0996 23.3011L97.0693 23.3687L96.8375 25.9969H95.9264L96.1559 23.4945V23.491Z" fill="black"/>
</svg>
